<svg id="svg" version="1.1" xmlns="http://www.w3.org/2000/svg" xmlns:xlink="http://www.w3.org/1999/xlink" width="400" height="400" viewBox="0, 0, 400,400"><g id="svgg"><path id="path0" d="M124.098 80.665 C 123.821 80.777,123.708 81.051,123.846 81.274 C 123.986 81.501,123.710 81.473,123.219 81.210 C 122.454 80.801,122.312 80.851,122.115 81.604 C 121.946 82.250,121.806 82.334,121.560 81.936 C 121.302 81.518,121.105 81.576,120.641 82.202 C 120.020 83.042,119.929 82.270,120.535 81.300 C 120.707 81.025,120.669 80.800,120.451 80.800 C 119.842 80.800,119.480 82.374,119.957 82.949 C 120.242 83.292,120.249 83.591,119.977 83.863 C 118.139 85.701,111.866 85.609,231.743 85.501 C 296.598 85.442,343.344 85.251,343.266 85.045 C 343.192 84.849,343.372 84.539,343.666 84.356 C 344.296 83.963,343.579 82.530,342.837 82.700 C 342.597 82.755,342.445 82.575,342.500 82.300 C 342.555 82.025,342.375 81.845,342.100 81.900 C 341.825 81.955,341.600 81.724,341.600 81.386 C 341.600 80.910,341.432 80.862,340.853 81.172 C 340.442 81.392,339.993 81.459,339.855 81.322 C 339.718 81.184,339.019 80.980,338.303 80.867 C 336.596 80.599,124.753 80.399,124.098 80.665 M334.700 81.300 C 334.568 81.695,326.302 81.801,295.167 81.804 L 255.800 81.808 295.200 81.599 L 334.600 81.390 294.641 81.303 C 272.663 81.255,254.588 81.122,254.474 81.008 C 254.360 80.893,272.402 80.800,294.567 80.800 C 326.629 80.800,334.833 80.902,334.700 81.300 M45.200 86.131 C 44.860 86.397,44.546 87.412,44.477 88.472 L 44.353 90.344 46.230 90.625 C 47.910 90.877,55.171 90.562,55.511 90.222 C 55.899 89.835,55.921 87.387,55.541 86.929 C 55.300 86.638,55.259 86.397,55.451 86.394 C 55.643 86.391,55.530 86.213,55.200 86.000 C 54.410 85.489,53.084 85.489,53.400 86.000 C 53.536 86.220,53.467 86.400,53.247 86.400 C 53.027 86.400,52.753 86.248,52.638 86.062 C 52.312 85.533,45.888 85.593,45.200 86.131 M102.403 85.957 C 100.955 86.360,99.434 90.400,100.731 90.400 C 100.913 90.400,100.987 89.895,100.897 89.277 C 100.794 88.574,100.969 87.958,101.366 87.628 C 101.857 87.221,102.000 87.215,102.000 87.600 C 102.000 87.983,102.130 87.990,102.564 87.630 C 102.920 87.335,103.219 87.306,103.371 87.553 C 103.675 88.044,103.206 88.330,102.328 88.188 C 101.958 88.128,101.555 88.341,101.432 88.660 C 101.310 88.980,101.370 89.142,101.567 89.020 C 101.764 88.898,101.828 89.169,101.710 89.622 C 101.508 90.397,101.649 90.441,104.076 90.362 C 106.439 90.286,106.649 90.207,106.562 89.439 C 106.510 88.978,106.452 88.454,106.433 88.276 C 106.415 88.098,106.239 88.052,106.042 88.174 C 105.845 88.296,105.583 88.132,105.459 87.811 C 105.336 87.489,105.435 87.102,105.679 86.951 C 105.967 86.773,106.010 86.861,105.800 87.200 C 105.586 87.546,105.633 87.627,105.938 87.438 C 106.535 87.069,106.523 86.980,105.771 86.229 C 105.115 85.572,104.086 85.489,102.403 85.957 M55.441 87.893 C 55.308 88.025,55.200 87.913,55.200 87.643 C 55.200 87.373,55.057 87.241,54.883 87.349 C 54.709 87.456,54.538 87.170,54.503 86.712 C 54.442 85.897,54.453 85.898,55.061 86.766 C 55.402 87.253,55.573 87.760,55.441 87.893 M104.452 86.537 C 104.207 86.832,104.140 87.216,104.303 87.391 C 104.467 87.566,104.219 87.510,103.753 87.268 C 103.287 87.026,102.810 86.924,102.693 87.041 C 102.576 87.158,102.371 87.077,102.238 86.862 C 102.099 86.637,102.423 86.517,102.998 86.580 C 103.549 86.640,104.000 86.535,104.000 86.345 C 104.000 86.155,104.202 86.000,104.449 86.000 C 104.779 86.000,104.780 86.142,104.452 86.537 M64.429 91.332 C 64.272 91.758,64.156 92.848,64.171 93.753 L 64.200 95.400 67.249 95.516 C 70.180 95.627,72.053 94.590,70.258 93.850 C 69.958 93.726,69.938 93.547,70.200 93.330 C 70.766 92.863,70.881 92.000,70.376 92.000 C 70.143 92.000,70.064 91.820,70.200 91.600 C 70.336 91.380,70.272 91.200,70.057 91.200 C 69.842 91.200,69.576 91.425,69.465 91.700 C 69.354 91.975,69.246 91.750,69.225 91.200 C 69.195 90.403,69.109 90.322,68.800 90.800 C 68.587 91.130,68.409 91.218,68.406 90.995 C 68.394 90.180,64.741 90.490,64.429 91.332 M363.569 91.247 C 363.235 95.088,364.072 95.874,367.562 94.994 L 368.600 94.733 367.700 94.002 C 367.205 93.600,366.800 93.005,366.800 92.679 C 366.800 92.352,366.530 91.982,366.200 91.855 C 365.870 91.729,365.600 91.810,365.600 92.036 C 365.600 92.262,365.409 92.329,365.176 92.185 C 364.903 92.016,364.978 91.758,365.389 91.458 C 365.926 91.065,365.837 90.985,364.812 90.943 C 364.146 90.916,363.586 91.052,363.569 91.247 M86.838 96.300 C 86.277 96.762,85.956 97.537,85.894 98.577 L 85.800 100.153 88.100 100.284 L 90.400 100.415 90.400 98.584 C 90.400 97.556,90.237 96.854,90.028 96.983 C 89.823 97.109,89.542 97.030,89.404 96.807 C 89.266 96.583,88.961 96.400,88.727 96.400 C 88.459 96.400,88.486 96.622,88.800 97.000 C 89.074 97.330,89.186 97.623,89.049 97.650 C 88.912 97.678,88.575 97.731,88.300 97.768 C 88.025 97.806,87.849 98.067,87.910 98.348 C 87.976 98.654,87.828 98.741,87.542 98.564 C 87.205 98.356,87.149 98.491,87.353 99.022 C 87.512 99.437,87.514 99.648,87.358 99.491 C 87.202 99.335,86.832 99.407,86.537 99.652 C 86.142 99.980,86.000 99.979,86.000 99.649 C 86.000 99.402,86.145 99.200,86.322 99.200 C 86.500 99.200,86.635 98.720,86.622 98.134 C 86.610 97.548,86.842 96.987,87.139 96.888 C 87.583 96.739,87.589 96.874,87.173 97.654 C 86.709 98.524,86.724 98.555,87.353 98.036 C 87.729 97.726,87.941 97.224,87.825 96.921 C 87.701 96.597,87.983 96.221,88.507 96.010 C 89.393 95.654,89.393 95.651,88.544 95.625 C 88.074 95.611,87.306 95.915,86.838 96.300 M82.032 101.100 C 81.549 101.495,81.066 102.487,80.923 103.376 C 80.700 104.766,80.742 104.886,81.271 104.392 C 81.601 104.083,81.826 103.419,81.771 102.915 C 81.675 102.045,81.982 101.826,83.094 101.969 C 83.383 102.006,83.489 101.777,83.351 101.416 C 83.175 100.958,83.383 100.800,84.157 100.800 C 85.391 100.800,85.542 101.437,84.394 101.802 C 83.951 101.943,83.684 102.212,83.801 102.401 C 83.917 102.590,83.802 102.875,83.545 103.034 C 83.269 103.205,83.183 103.151,83.336 102.904 C 83.479 102.673,83.331 102.382,83.007 102.258 C 82.557 102.085,82.451 102.305,82.555 103.198 C 82.630 103.839,82.513 104.327,82.295 104.282 C 82.078 104.237,81.828 104.393,81.741 104.628 C 81.643 104.890,82.364 105.092,83.593 105.148 L 85.605 105.240 85.550 102.820 L 85.495 100.400 84.192 100.400 C 83.475 100.400,82.503 100.715,82.032 101.100 M382.846 112.555 C 382.777 115.052,382.824 115.203,383.686 115.246 C 385.134 115.319,386.165 115.151,386.637 114.764 C 386.877 114.568,387.192 114.525,387.337 114.670 C 387.482 114.815,387.600 114.623,387.600 114.243 C 387.600 113.863,387.456 113.642,387.281 113.750 C 387.105 113.858,386.700 113.782,386.381 113.580 C 385.930 113.294,386.007 113.211,386.724 113.206 C 387.246 113.203,387.538 113.024,387.396 112.793 C 387.258 112.570,386.932 112.514,386.672 112.670 C 386.413 112.826,386.455 112.640,386.766 112.257 C 387.553 111.286,386.626 110.408,384.514 110.125 L 382.918 109.911 382.846 112.555 M78.006 110.687 C 78.003 110.956,77.730 111.071,77.400 110.945 C 77.070 110.818,76.800 110.914,76.800 111.157 C 76.800 111.401,77.025 111.605,77.300 111.612 C 77.577 111.619,77.488 111.806,77.100 112.032 C 76.715 112.256,76.379 112.746,76.353 113.120 C 76.327 113.494,76.168 113.260,76.000 112.600 L 75.695 111.400 75.647 112.476 C 75.621 113.068,75.783 113.666,76.007 113.804 C 76.230 113.942,76.309 114.223,76.183 114.428 C 76.050 114.642,76.991 114.800,78.398 114.800 L 80.844 114.800 80.722 112.900 C 80.611 111.167,80.512 111.002,79.600 111.017 C 79.050 111.027,78.468 110.847,78.306 110.617 C 78.113 110.343,78.010 110.368,78.006 110.687 M386.221 111.166 C 386.097 111.367,386.131 111.608,386.298 111.700 C 386.464 111.793,386.375 111.814,386.100 111.747 C 385.825 111.680,385.600 111.829,385.600 112.079 C 385.600 112.329,385.484 112.418,385.343 112.276 C 385.202 112.135,385.314 111.745,385.592 111.410 C 386.142 110.747,386.587 110.575,386.221 111.166 M308.925 116.369 C 308.472 116.792,307.333 117.368,306.396 117.649 C 301.585 119.090,301.758 130.695,306.601 131.421 C 307.571 131.566,308.679 131.916,309.064 132.197 C 310.895 133.536,315.446 132.147,319.217 129.099 C 321.878 126.947,321.383 121.550,318.321 119.337 C 317.455 118.712,316.508 117.981,316.215 117.713 C 315.842 117.372,310.450 115.600,309.783 115.600 C 309.766 115.600,309.379 115.946,308.925 116.369 M338.700 115.903 C 338.315 115.989,338.000 116.211,338.000 116.397 C 338.000 116.583,337.114 117.030,336.031 117.390 C 332.864 118.441,331.122 122.631,332.264 126.448 C 332.552 127.412,332.791 128.515,332.794 128.900 C 332.803 129.983,334.307 131.235,335.910 131.495 C 336.708 131.625,337.763 131.939,338.255 132.195 C 341.019 133.629,346.417 131.171,347.807 127.845 C 348.126 127.080,348.571 126.342,348.794 126.204 C 349.420 125.817,349.276 122.819,348.600 122.143 C 348.270 121.813,348.000 121.212,348.000 120.809 C 348.000 119.666,344.475 117.004,342.200 116.428 C 339.400 115.719,339.476 115.731,338.700 115.903 M279.000 117.219 C 278.120 117.854,277.107 118.379,276.749 118.387 C 274.928 118.424,273.822 122.695,274.528 126.964 L 274.985 129.729 277.492 130.902 C 278.871 131.547,280.100 132.238,280.223 132.438 C 280.614 133.071,285.442 132.872,286.000 132.200 C 286.274 131.870,286.689 131.600,286.923 131.600 C 287.841 131.600,290.838 129.877,291.246 129.114 C 292.563 126.653,291.393 118.400,289.726 118.400 C 289.094 118.400,286.071 116.838,285.774 116.359 C 285.218 115.458,280.635 116.040,279.000 117.219 M72.578 119.964 C 72.923 120.522,72.382 121.600,71.757 121.600 C 71.451 121.600,71.200 121.409,71.200 121.176 C 71.200 120.943,71.368 120.856,71.572 120.983 C 71.777 121.109,72.050 121.043,72.179 120.834 C 72.308 120.626,72.210 120.330,71.962 120.176 C 71.714 120.023,71.353 120.146,71.161 120.449 C 70.645 121.263,70.726 122.706,71.300 122.917 C 71.700 123.063,71.700 123.206,71.300 123.630 C 70.636 124.334,70.668 124.800,71.380 124.800 C 71.699 124.800,72.144 125.115,72.368 125.500 C 72.672 126.022,72.779 126.052,72.788 125.620 C 72.796 125.225,72.930 125.170,73.209 125.449 C 74.230 126.470,76.000 125.584,75.996 124.055 C 75.987 121.310,75.545 119.547,74.982 120.015 C 74.627 120.310,74.392 120.311,74.212 120.019 C 74.069 119.789,73.593 119.600,73.153 119.600 C 72.713 119.600,72.454 119.764,72.578 119.964 M26.906 123.800 C 26.909 124.680,27.088 125.625,27.305 125.900 C 27.569 126.237,27.551 126.400,27.249 126.400 C 27.002 126.400,26.800 126.670,26.800 127.000 C 26.800 127.330,26.935 127.579,27.100 127.553 C 27.871 127.431,28.058 127.648,27.630 128.164 C 27.335 128.520,27.306 128.819,27.553 128.971 C 27.768 129.104,28.060 129.027,28.200 128.800 C 28.340 128.573,28.662 128.515,28.914 128.670 C 29.166 128.826,30.123 128.980,31.040 129.013 L 32.708 129.072 32.654 126.436 L 32.600 123.800 29.926 123.682 C 27.803 123.589,27.216 123.424,27.077 122.882 C 26.980 122.507,26.904 122.920,26.906 123.800 M388.039 127.232 L 387.956 130.062 389.899 129.959 C 390.968 129.902,392.059 129.989,392.324 130.153 C 392.697 130.384,392.702 130.222,392.345 129.438 C 392.091 128.881,391.702 128.537,391.480 128.674 C 391.249 128.817,391.200 128.724,391.366 128.455 C 391.525 128.198,391.804 128.079,391.986 128.191 C 392.167 128.304,392.425 128.112,392.558 127.765 C 392.909 126.850,392.843 126.512,392.439 127.151 C 392.003 127.839,391.200 127.389,391.200 126.456 C 391.200 126.073,390.975 125.518,390.700 125.221 C 390.300 124.790,390.300 124.739,390.700 124.965 C 390.975 125.120,391.200 125.057,391.200 124.824 C 391.200 124.275,389.726 124.272,389.388 124.819 C 389.208 125.111,388.976 125.112,388.625 124.821 C 388.229 124.492,388.103 125.009,388.039 127.232 M42.906 129.089 C 41.616 129.249,41.368 129.872,42.118 131.072 C 42.280 131.332,42.229 131.658,42.005 131.797 C 40.587 132.673,43.898 133.935,47.221 133.785 C 51.668 133.584,51.625 133.595,51.202 132.803 C 51.006 132.438,50.881 131.526,50.923 130.777 C 51.023 129.002,48.269 128.422,42.906 129.089 M63.587 133.958 L 61.374 134.200 61.411 135.691 C 61.431 136.510,61.572 137.305,61.724 137.457 C 62.181 137.914,62.035 138.469,61.538 138.162 C 61.246 137.982,61.185 138.052,61.372 138.354 C 61.534 138.617,61.991 138.730,62.386 138.604 C 63.301 138.314,63.613 139.108,63.091 140.400 C 61.659 143.945,62.641 144.498,69.900 144.235 C 73.574 144.101,76.000 144.162,76.000 144.388 C 76.000 146.695,83.198 150.060,91.000 151.401 C 95.034 152.094,97.112 152.684,102.159 154.569 C 103.676 155.136,105.306 155.600,105.782 155.600 C 107.613 155.600,116.971 157.642,119.326 158.555 C 123.431 160.147,125.674 160.800,127.042 160.800 C 130.147 160.800,137.286 162.562,140.063 164.014 C 141.138 164.576,147.400 166.000,148.797 166.000 C 151.361 166.000,157.334 167.613,160.057 169.041 C 161.266 169.674,168.641 171.200,170.494 171.200 C 171.838 171.200,175.486 172.159,177.400 173.016 C 178.060 173.311,179.590 173.859,180.800 174.233 C 183.863 175.180,185.418 175.977,187.047 177.437 C 187.954 178.250,187.985 178.495,188.091 185.637 L 188.200 193.000 190.331 193.707 C 192.689 194.489,193.949 194.314,197.508 192.714 C 201.673 190.841,204.094 190.236,211.463 189.225 C 212.817 189.039,215.067 188.343,216.463 187.678 C 219.586 186.191,222.607 185.197,223.971 185.208 C 226.933 185.233,233.611 183.814,236.400 182.568 C 239.673 181.106,243.776 180.015,246.039 180.006 C 248.459 179.996,254.507 178.558,256.200 177.590 C 257.944 176.593,265.275 174.826,267.734 174.810 C 269.334 174.800,274.452 173.602,274.800 173.156 C 275.635 172.088,280.066 171.020,289.220 169.682 C 290.661 169.472,292.821 168.837,294.020 168.273 C 298.213 166.299,298.248 166.291,307.460 165.026 C 310.492 164.609,312.266 164.112,314.460 163.061 C 319.483 160.657,321.159 160.753,322.896 163.547 L 323.800 165.000 323.800 230.018 C 323.800 292.320,323.769 295.082,323.069 296.151 C 322.173 297.519,320.698 298.133,316.800 298.761 C 313.677 299.264,311.144 299.938,310.800 300.356 C 309.972 301.365,303.204 303.215,300.380 303.205 C 297.952 303.196,292.313 304.641,289.800 305.915 C 288.129 306.762,286.125 307.330,283.200 307.784 C 277.735 308.633,273.552 309.598,272.800 310.183 C 271.478 311.212,268.752 312.002,263.800 312.791 C 256.071 314.022,255.037 314.273,252.159 315.619 C 249.659 316.788,248.169 317.106,239.033 318.419 C 237.511 318.637,235.171 319.337,233.833 319.973 C 230.470 321.572,227.752 322.399,225.829 322.407 C 224.933 322.411,222.940 322.681,221.400 323.007 C 219.860 323.333,218.194 323.600,217.698 323.600 C 216.912 323.600,214.893 324.436,212.200 325.877 C 210.925 326.559,206.221 327.600,204.413 327.600 C 203.503 327.600,201.462 327.878,199.879 328.218 C 198.296 328.559,196.618 328.916,196.151 329.013 C 195.683 329.110,195.080 329.723,194.810 330.375 C 193.449 333.661,186.414 333.822,186.396 330.569 C 186.393 330.146,186.123 328.916,185.796 327.836 C 185.386 326.485,185.200 324.063,185.200 320.063 C 185.200 314.285,184.530 310.050,183.443 308.954 C 182.946 308.454,176.876 307.199,174.952 307.200 C 173.588 307.200,168.410 305.623,167.542 304.943 C 166.588 304.196,163.120 303.266,158.800 302.600 C 154.020 301.863,150.915 301.080,148.600 300.028 C 146.369 299.015,142.753 298.000,141.365 297.999 C 139.301 297.997,132.205 296.460,130.172 295.575 C 127.262 294.307,121.637 292.811,119.764 292.805 C 118.864 292.802,117.244 292.532,116.164 292.204 C 115.084 291.877,113.783 291.607,113.274 291.604 C 112.764 291.602,111.954 291.380,111.474 291.112 C 109.046 289.755,102.684 288.012,100.136 288.005 C 99.220 288.002,97.330 287.642,95.936 287.205 C 94.541 286.768,93.006 286.408,92.524 286.405 C 92.042 286.402,91.546 286.237,91.423 286.037 C 90.167 284.004,78.108 282.417,76.165 284.029 C 75.880 284.266,74.600 284.411,73.323 284.352 L 71.000 284.244 70.869 287.322 C 70.722 290.766,70.520 290.574,74.120 290.407 C 74.957 290.368,75.899 290.550,76.215 290.812 C 77.006 291.469,82.226 292.800,84.012 292.800 C 84.903 292.800,85.839 293.113,86.400 293.600 C 86.907 294.040,87.475 294.400,87.661 294.400 C 87.848 294.400,88.000 294.587,88.000 294.816 C 88.000 295.246,89.199 297.038,90.600 298.704 C 91.040 299.227,91.622 300.858,91.894 302.328 C 92.165 303.797,92.558 305.928,92.767 307.063 C 93.269 309.792,94.566 312.568,96.322 314.669 C 97.109 315.610,98.134 317.330,98.599 318.490 C 99.199 319.988,99.786 320.763,100.622 321.162 C 101.943 321.793,103.600 323.414,103.600 324.075 C 103.600 324.707,105.536 326.400,106.259 326.400 C 107.068 326.400,109.190 327.588,110.200 328.607 C 111.520 329.938,114.666 331.600,115.871 331.602 C 116.492 331.604,117.516 331.874,118.146 332.202 C 118.776 332.531,119.547 332.800,119.859 332.800 C 120.171 332.800,121.366 333.286,122.513 333.880 L 124.600 334.960 229.400 334.859 C 335.061 334.756,337.646 334.722,339.800 333.366 C 340.240 333.089,341.680 332.562,343.000 332.195 C 347.762 330.869,350.213 329.815,351.400 328.581 C 352.060 327.895,353.770 326.745,355.200 326.027 C 358.016 324.611,358.413 324.265,360.154 321.700 C 360.789 320.765,361.464 320.000,361.654 320.000 C 361.844 320.000,362.000 319.751,362.000 319.446 C 362.000 319.141,362.451 318.597,363.001 318.236 C 364.203 317.448,366.000 314.711,366.000 313.668 C 366.000 313.257,366.582 312.128,367.294 311.160 C 370.517 306.775,370.186 315.424,370.310 232.390 C 370.405 168.550,370.342 158.474,369.842 157.790 C 369.272 157.010,368.338 156.996,297.532 156.707 C 178.780 156.223,141.186 155.882,139.800 155.275 C 139.140 154.986,137.880 154.422,137.000 154.021 C 134.558 152.908,131.110 152.000,129.326 152.000 C 126.658 152.000,120.704 150.573,117.841 149.248 C 116.358 148.562,114.896 148.000,114.592 148.000 C 114.288 148.000,113.002 147.730,111.735 147.400 C 110.469 147.070,108.615 146.797,107.616 146.793 C 105.236 146.784,100.693 145.587,97.750 144.192 C 95.559 143.154,88.506 141.615,85.892 141.604 C 85.283 141.602,83.720 141.168,82.420 140.640 C 81.120 140.111,79.321 139.576,78.422 139.450 C 77.524 139.325,76.476 139.063,76.094 138.869 C 74.975 138.299,71.074 138.755,70.484 139.524 C 70.033 140.112,69.921 140.121,69.590 139.598 C 69.316 139.163,69.211 139.143,69.206 139.524 C 69.203 139.812,69.028 139.941,68.817 139.811 C 68.208 139.434,68.833 138.327,69.508 138.586 C 69.995 138.773,70.020 138.706,69.636 138.243 C 69.251 137.780,69.312 137.618,69.944 137.418 C 70.709 137.175,70.942 134.809,70.268 134.135 C 69.913 133.780,66.129 133.679,63.587 133.958 M8.000 139.800 C 7.603 140.279,7.603 140.521,8.000 141.000 C 8.274 141.330,8.327 141.600,8.119 141.600 C 7.642 141.600,7.621 141.962,7.365 154.832 C 7.198 163.194,7.274 165.989,7.720 167.921 C 8.032 169.272,8.133 170.282,7.944 170.165 C 7.421 169.842,7.533 170.568,8.100 171.179 C 8.500 171.610,8.500 171.661,8.100 171.435 C 7.797 171.264,7.600 171.389,7.600 171.753 C 7.600 172.512,8.263 172.945,8.598 172.403 C 8.758 172.144,9.072 172.215,9.454 172.597 C 10.176 173.319,11.200 173.391,11.200 172.720 C 11.200 172.362,11.315 172.355,11.654 172.694 C 12.892 173.932,13.055 172.331,13.027 159.200 C 13.012 152.050,13.180 145.210,13.400 144.000 C 14.186 139.677,12.558 137.874,9.600 139.789 C 8.790 140.313,7.942 140.418,8.226 139.958 C 8.352 139.754,8.610 139.683,8.800 139.800 C 8.990 139.917,9.258 139.830,9.396 139.607 C 9.794 138.962,8.552 139.135,8.000 139.800 M21.792 139.796 C 21.499 140.033,21.315 141.025,21.347 142.200 L 21.400 144.200 25.200 144.321 C 30.628 144.494,31.495 144.282,31.442 142.794 C 31.419 142.138,31.220 141.599,31.000 141.595 C 30.780 141.591,30.844 141.433,31.141 141.245 C 31.564 140.977,31.582 140.715,31.227 140.051 C 30.750 139.159,30.000 138.898,30.000 139.624 C 30.000 139.857,30.225 139.920,30.500 139.765 C 30.892 139.544,30.896 139.595,30.517 140.004 C 30.120 140.433,29.912 140.425,29.355 139.963 C 28.552 139.296,22.572 139.164,21.792 139.796 M46.400 145.876 C 46.400 147.937,46.346 148.080,45.834 147.379 C 45.523 146.953,45.388 146.514,45.534 146.403 C 45.988 146.056,46.042 144.873,45.615 144.609 C 45.377 144.462,45.307 144.614,45.447 144.979 C 45.578 145.321,45.486 145.600,45.243 145.600 C 44.999 145.600,44.800 145.409,44.800 145.176 C 44.800 144.943,44.589 144.883,44.332 145.042 C 44.017 145.236,43.948 145.113,44.119 144.666 C 44.321 144.140,44.133 144.000,43.221 144.000 C 42.586 144.000,41.976 144.225,41.865 144.500 C 41.704 144.900,41.657 144.900,41.632 144.500 C 41.614 144.225,41.355 144.000,41.055 144.000 C 40.632 144.000,40.537 144.693,40.627 147.100 C 41.248 163.523,41.267 166.519,40.780 171.345 C 40.178 177.307,40.317 177.789,42.644 177.821 C 43.500 177.833,44.380 177.746,44.600 177.628 C 44.820 177.509,45.180 177.401,45.400 177.388 C 45.620 177.375,45.755 177.147,45.700 176.882 C 45.645 176.617,45.779 176.400,45.998 176.400 C 46.260 176.400,46.432 192.699,46.500 223.900 C 46.597 268.576,46.609 267.602,46.702 207.500 C 46.756 172.355,46.710 143.600,46.600 143.600 C 46.490 143.600,46.400 144.624,46.400 145.876 M47.299 207.420 C 47.220 257.872,47.303 271.151,47.700 271.579 C 48.034 271.939,48.044 272.030,47.729 271.853 C 47.197 271.554,46.606 272.963,46.998 273.596 C 47.135 273.818,47.080 274.000,46.876 274.000 C 46.672 274.000,46.498 275.149,46.489 276.553 C 46.475 278.872,46.543 279.088,47.237 278.906 C 48.097 278.681,48.242 279.198,47.520 279.920 C 47.253 280.187,47.218 280.400,47.440 280.400 C 47.660 280.400,48.056 280.184,48.320 279.920 C 48.584 279.656,48.800 279.619,48.800 279.837 C 48.800 280.056,49.559 280.219,50.487 280.200 C 52.683 280.156,53.344 277.631,52.038 274.274 C 51.797 273.655,51.600 272.710,51.600 272.174 C 51.600 271.328,51.417 271.200,50.201 271.200 L 48.802 271.200 48.700 207.500 L 48.598 143.800 48.499 207.500 C 48.434 249.503,48.264 271.200,48.001 271.200 C 47.738 271.200,47.568 249.501,47.500 207.500 L 47.398 143.800 47.299 207.420 M46.299 168.524 C 46.231 171.426,46.175 168.940,46.175 163.000 C 46.175 157.060,46.231 154.686,46.299 157.724 C 46.367 160.762,46.367 165.622,46.299 168.524 M67.700 162.864 L 66.000 163.689 66.000 183.245 L 66.000 202.801 67.596 204.300 C 68.473 205.125,69.429 206.001,69.720 206.246 C 71.169 207.465,77.345 209.586,79.471 209.595 C 81.135 209.602,88.212 211.035,90.000 211.728 C 90.770 212.027,92.069 212.570,92.887 212.935 C 93.705 213.301,94.577 213.600,94.825 213.600 C 95.451 213.600,97.483 214.805,98.854 215.989 C 99.903 216.895,100.000 217.205,100.000 219.665 C 100.000 221.143,100.180 222.464,100.400 222.600 C 100.620 222.736,100.800 223.163,100.800 223.548 C 100.800 226.749,103.195 228.493,108.800 229.375 C 113.105 230.052,116.005 230.819,118.303 231.888 C 121.996 233.606,124.800 229.619,124.801 222.649 C 124.802 212.457,123.802 210.439,118.310 209.555 C 112.535 208.624,112.443 208.318,112.300 189.400 C 112.170 172.213,111.837 171.204,106.292 171.199 C 103.729 171.196,96.739 169.582,94.687 168.519 C 92.177 167.218,87.978 166.025,85.857 166.011 C 82.915 165.990,77.982 164.655,73.774 162.740 C 71.690 161.792,69.834 161.830,67.700 162.864 M20.610 173.098 C 19.516 173.182,18.391 173.442,18.110 173.675 C 17.741 173.981,17.600 173.955,17.600 173.582 C 17.600 173.299,17.492 173.175,17.360 173.307 C 17.228 173.439,17.267 173.784,17.448 174.073 C 17.628 174.363,17.726 174.982,17.666 175.449 C 17.491 176.802,18.606 177.603,20.419 177.428 C 21.288 177.345,22.000 177.406,22.000 177.565 C 22.000 178.121,28.877 177.721,29.258 177.143 C 29.546 176.705,29.730 176.750,30.208 177.376 C 30.533 177.804,30.800 177.969,30.800 177.743 C 30.800 177.518,30.665 177.198,30.500 177.033 C 30.335 176.868,30.177 176.568,30.150 176.367 C 30.123 176.165,30.058 175.865,30.008 175.700 C 29.957 175.535,29.945 174.929,29.982 174.353 C 30.080 172.816,27.952 172.531,20.610 173.098 M19.341 176.895 C 19.233 177.070,18.974 177.108,18.766 176.979 C 18.557 176.850,18.491 176.577,18.617 176.372 C 18.744 176.168,18.657 176.000,18.424 176.000 C 18.191 176.000,18.004 175.685,18.009 175.300 C 18.016 174.732,18.161 174.786,18.778 175.589 C 19.196 176.133,19.449 176.721,19.341 176.895 M62.600 280.353 C 61.462 280.587,61.398 280.706,61.353 282.667 C 61.317 284.272,61.430 284.687,61.858 284.522 C 62.162 284.406,62.633 284.488,62.905 284.705 C 63.412 285.109,68.973 285.257,69.934 284.892 C 70.378 284.722,70.378 284.632,69.934 284.350 C 69.506 284.079,69.519 284.011,70.000 284.005 C 70.437 284.000,70.607 283.522,70.627 282.243 L 70.653 280.489 68.871 280.244 C 66.792 279.959,64.299 280.002,62.600 280.353 M391.254 307.835 C 391.225 308.075,390.545 308.295,389.743 308.325 C 388.942 308.355,388.239 308.429,388.181 308.490 C 387.700 308.993,387.921 314.400,388.424 314.400 C 388.657 314.400,388.755 314.250,388.641 314.067 C 388.528 313.883,388.705 313.733,389.035 313.733 C 389.370 313.733,389.544 313.968,389.430 314.267 C 389.316 314.562,389.487 314.800,389.813 314.800 C 390.136 314.800,390.414 314.485,390.432 314.100 C 390.450 313.682,390.544 313.601,390.665 313.900 C 390.776 314.175,391.102 314.400,391.391 314.400 C 392.122 314.400,392.534 313.130,391.925 312.753 C 391.549 312.521,391.596 312.376,392.111 312.179 C 392.490 312.033,392.800 311.653,392.800 311.334 C 392.800 311.014,392.640 310.851,392.445 310.972 C 391.956 311.275,392.104 309.871,392.600 309.506 C 392.828 309.339,392.711 309.210,392.328 309.206 C 391.952 309.203,391.579 308.804,391.482 308.300 C 391.387 307.805,391.284 307.596,391.254 307.835 M72.467 313.492 C 71.754 313.988,71.463 314.026,71.231 313.651 C 71.065 313.381,70.895 314.095,70.855 315.237 C 70.790 317.070,70.854 317.253,71.400 316.800 C 71.741 316.517,72.135 316.402,72.276 316.543 C 72.418 316.684,72.323 316.800,72.067 316.800 C 71.810 316.800,71.600 316.991,71.600 317.224 C 71.600 317.457,71.760 317.549,71.955 317.428 C 72.150 317.307,72.555 317.511,72.855 317.881 C 73.230 318.344,73.244 318.460,72.900 318.253 C 72.171 317.815,72.288 318.212,73.077 318.851 C 73.654 319.320,73.703 319.317,73.411 318.832 C 73.066 318.260,73.074 318.261,74.947 319.023 C 75.623 319.297,75.987 318.078,75.995 315.514 C 76.001 313.331,74.923 312.279,73.698 313.272 C 73.223 313.657,73.128 313.665,73.347 313.300 C 73.727 312.667,73.616 312.691,72.467 313.492 M77.700 323.925 C 76.985 323.994,76.397 324.264,76.394 324.525 C 76.390 324.808,76.231 324.757,76.000 324.400 C 75.707 323.946,75.611 324.122,75.606 325.124 C 75.602 326.024,75.748 326.356,76.062 326.161 C 76.395 325.956,76.452 326.257,76.263 327.238 C 76.119 327.987,76.136 328.420,76.301 328.200 C 76.465 327.980,76.855 327.745,77.168 327.677 C 77.623 327.579,77.639 327.671,77.248 328.142 C 76.865 328.604,76.867 328.794,77.257 329.035 C 77.530 329.204,77.811 329.166,77.883 328.952 C 77.954 328.738,78.640 328.635,79.406 328.725 L 80.800 328.888 80.800 326.490 C 80.800 323.846,80.562 323.649,77.700 323.925 M378.000 331.353 C 378.000 333.170,378.125 333.539,378.800 333.716 C 379.240 333.831,379.600 333.766,379.600 333.572 C 379.600 333.375,380.034 333.385,380.586 333.595 C 381.329 333.877,381.730 333.813,382.206 333.337 C 383.028 332.515,382.632 332.119,381.710 332.843 C 381.080 333.338,381.056 333.329,381.497 332.763 C 381.770 332.413,381.860 331.979,381.697 331.799 C 381.533 331.619,381.614 331.594,381.876 331.745 C 382.170 331.913,382.340 331.747,382.322 331.309 C 382.306 330.919,382.426 330.285,382.589 329.900 C 382.853 329.277,382.615 329.200,380.443 329.200 L 378.000 329.200 378.000 331.353 M368.475 340.653 C 368.439 341.608,368.579 342.002,368.911 341.880 C 369.180 341.781,369.351 341.484,369.290 341.220 C 369.230 340.956,369.373 340.859,369.608 341.005 C 369.843 341.150,370.342 341.028,370.718 340.734 C 371.332 340.253,371.345 340.270,370.851 340.900 C 370.447 341.415,370.430 341.600,370.788 341.600 C 371.056 341.600,371.369 341.242,371.483 340.804 C 371.597 340.367,371.848 340.106,372.041 340.225 C 372.233 340.344,372.301 340.207,372.190 339.921 C 371.660 338.545,368.531 339.161,368.475 340.653 M96.400 344.035 C 95.850 344.192,95.580 344.341,95.800 344.366 C 96.020 344.392,95.937 344.579,95.616 344.782 C 95.112 345.100,95.126 345.255,95.716 345.907 C 96.092 346.323,96.400 346.983,96.400 347.374 C 96.400 347.842,96.605 348.007,97.000 347.855 C 97.365 347.715,97.600 347.855,97.600 348.213 C 97.600 348.891,98.231 348.996,98.612 348.381 C 98.791 348.090,99.034 348.096,99.400 348.400 C 99.760 348.699,100.010 348.707,100.185 348.425 C 100.588 347.772,100.868 344.005,100.517 343.958 C 99.046 343.764,97.229 343.798,96.400 344.035 M365.480 343.896 L 363.160 344.041 363.280 346.117 C 363.376 347.783,363.550 348.221,364.158 348.337 C 364.711 348.442,364.851 348.311,364.676 347.853 C 364.543 347.508,364.612 347.116,364.827 346.983 C 365.043 346.850,365.194 346.889,365.163 347.070 C 364.915 348.493,365.752 348.839,366.686 347.700 C 367.037 347.272,367.147 347.233,366.971 347.600 C 366.742 348.077,366.789 348.101,367.204 347.717 C 367.633 347.320,367.625 347.110,367.163 346.540 C 366.853 346.159,366.813 345.974,367.072 346.130 C 367.332 346.286,367.658 346.230,367.796 346.007 C 367.934 345.783,367.857 345.600,367.624 345.600 C 367.391 345.600,367.200 345.409,367.200 345.176 C 367.200 344.943,367.380 344.864,367.600 345.000 C 367.820 345.136,368.000 344.877,368.000 344.424 C 368.000 343.971,367.955 343.634,367.900 343.676 C 367.845 343.717,366.756 343.816,365.480 343.896 M95.206 346.900 C 95.209 347.175,95.372 347.653,95.568 347.961 C 95.822 348.363,95.906 348.221,95.862 347.462 C 95.802 346.427,95.194 345.906,95.206 346.900 M104.800 349.951 C 104.800 351.157,105.640 352.204,106.201 351.697 C 106.381 351.533,106.400 351.624,106.242 351.897 C 106.085 352.170,106.141 352.710,106.366 353.097 C 106.688 353.649,106.780 353.671,106.794 353.200 C 106.810 352.667,106.859 352.667,107.237 353.200 C 107.542 353.631,107.716 353.665,107.857 353.320 C 107.999 352.973,108.342 352.950,109.093 353.236 C 110.430 353.744,110.786 353.213,110.794 350.700 L 110.800 348.800 107.800 348.800 L 104.800 348.800 104.800 349.951 M352.000 349.600 C 352.000 350.040,352.150 350.400,352.333 350.400 C 352.834 350.400,352.735 351.598,352.233 351.612 C 351.995 351.619,352.115 351.808,352.500 352.032 C 352.885 352.256,353.200 352.701,353.200 353.020 C 353.200 353.688,354.226 353.805,354.612 353.181 C 354.789 352.894,355.050 352.909,355.436 353.230 C 355.885 353.602,356.000 353.555,356.000 353.000 C 356.000 352.460,356.122 352.403,356.539 352.750 C 357.399 353.463,358.724 351.810,358.097 350.806 C 357.749 350.249,357.746 350.018,358.085 349.905 C 359.469 349.444,357.657 348.800,354.976 348.800 C 352.267 348.800,352.000 348.872,352.000 349.600 " stroke="none" fill="#d4dce1" fill-rule="evenodd"></path><path id="path1" d="M27.333 85.910 C 26.851 86.216,26.613 119.516,27.073 122.283 C 27.285 123.561,27.294 123.566,29.943 123.683 L 32.600 123.800 32.646 126.400 L 32.691 129.000 41.446 129.000 C 51.031 129.000,51.162 129.025,50.952 130.825 C 50.873 131.508,51.016 132.457,51.269 132.934 C 51.669 133.684,51.651 133.734,51.132 133.306 C 50.645 132.905,50.533 132.929,50.533 133.436 C 50.533 133.987,51.705 134.044,60.667 133.933 L 70.800 133.807 70.754 114.004 C 70.728 103.112,70.623 94.522,70.521 94.916 C 70.359 95.539,69.937 95.617,67.268 95.516 L 64.200 95.400 64.289 92.837 L 64.378 90.273 55.598 90.528 C 44.290 90.857,44.354 90.870,44.493 88.349 C 44.552 87.277,44.746 86.400,44.924 86.400 C 45.102 86.400,45.136 86.220,45.000 86.000 C 44.711 85.533,28.058 85.448,27.333 85.910 M69.200 90.987 C 69.200 91.345,69.435 91.485,69.800 91.345 C 70.130 91.218,70.400 90.954,70.400 90.757 C 70.400 90.561,70.130 90.400,69.800 90.400 C 69.470 90.400,69.200 90.664,69.200 90.987 M27.460 128.467 C 28.189 129.272,28.800 129.424,28.800 128.800 C 28.800 128.580,28.575 128.445,28.300 128.500 C 28.025 128.555,27.835 128.405,27.878 128.167 C 27.921 127.928,27.695 127.733,27.376 127.733 C 26.901 127.733,26.916 127.865,27.460 128.467 M62.800 138.800 C 62.800 139.052,60.096 139.202,55.500 139.206 C 50.639 139.210,48.400 139.342,48.800 139.600 C 49.130 139.813,49.211 139.991,48.980 139.994 C 48.749 139.997,48.374 139.814,48.147 139.587 C 47.367 138.807,46.405 139.562,46.813 140.634 C 47.015 141.165,47.050 141.600,46.890 141.600 C 46.731 141.600,46.600 171.198,46.600 207.374 C 46.600 253.621,46.725 272.914,47.021 272.361 C 47.252 271.929,47.606 271.716,47.808 271.887 C 48.009 272.059,47.954 271.911,47.686 271.558 C 47.305 271.057,47.220 256.886,47.300 207.358 L 47.402 143.800 47.501 207.500 C 47.566 249.503,47.736 271.200,47.999 271.200 C 48.262 271.200,48.432 249.501,48.500 207.500 L 48.602 143.800 48.701 207.500 L 48.800 271.200 50.200 271.200 C 51.417 271.200,51.600 271.328,51.600 272.174 C 51.600 272.710,51.797 273.655,52.038 274.274 C 52.615 275.757,52.734 277.493,52.369 279.123 L 52.074 280.446 59.915 280.271 C 70.605 280.034,70.709 280.052,70.648 282.146 C 70.617 283.204,70.384 283.889,70.000 284.048 C 69.670 284.184,70.820 284.320,72.556 284.350 C 74.292 284.380,75.932 284.223,76.199 284.001 C 78.112 282.414,90.181 284.028,91.423 286.037 C 91.546 286.237,92.042 286.402,92.524 286.405 C 93.006 286.408,94.541 286.768,95.936 287.205 C 97.330 287.642,99.220 288.002,100.136 288.005 C 102.684 288.012,109.046 289.755,111.474 291.112 C 111.954 291.380,112.764 291.602,113.274 291.604 C 113.783 291.607,115.084 291.877,116.164 292.204 C 117.244 292.532,118.864 292.802,119.764 292.805 C 121.637 292.811,127.262 294.307,130.172 295.575 C 132.205 296.460,139.301 297.997,141.365 297.999 C 142.753 298.000,146.369 299.015,148.600 300.028 C 150.915 301.080,154.020 301.863,158.800 302.600 C 163.120 303.266,166.588 304.196,167.542 304.943 C 168.454 305.657,173.617 307.199,175.152 307.216 C 175.949 307.224,178.214 307.569,180.187 307.981 L 183.774 308.730 184.387 307.865 C 184.928 307.102,185.025 300.688,185.212 253.400 C 185.441 195.788,185.394 197.016,187.420 194.777 C 188.615 193.457,188.285 178.545,187.036 177.427 C 185.418 175.977,183.856 175.177,180.800 174.233 C 179.590 173.859,178.060 173.311,177.400 173.016 C 175.486 172.159,171.838 171.200,170.494 171.200 C 168.641 171.200,161.266 169.674,160.057 169.041 C 157.334 167.613,151.361 166.000,148.797 166.000 C 147.400 166.000,141.138 164.576,140.063 164.014 C 137.286 162.562,130.147 160.800,127.042 160.800 C 125.674 160.800,123.431 160.147,119.326 158.555 C 116.971 157.642,107.613 155.600,105.782 155.600 C 105.306 155.600,103.676 155.136,102.159 154.569 C 97.112 152.684,95.034 152.094,91.000 151.401 C 83.199 150.061,76.000 146.695,76.000 144.388 C 76.000 144.163,73.803 144.115,70.464 144.267 C 63.523 144.583,62.941 144.456,62.722 142.579 C 62.630 141.794,62.688 141.069,62.851 140.969 C 63.137 140.792,63.219 138.400,62.939 138.400 C 62.863 138.400,62.800 138.580,62.800 138.800 M13.653 141.587 C 13.659 142.846,13.449 144.669,13.186 145.638 C 12.846 146.891,12.750 151.130,12.854 160.319 L 13.000 173.238 20.523 173.017 C 29.307 172.759,30.078 172.868,29.983 174.350 C 29.946 174.927,29.957 175.535,30.008 175.700 C 30.058 175.865,30.138 176.135,30.185 176.300 C 30.614 177.825,30.779 177.874,35.719 177.957 L 40.600 178.039 40.780 173.919 C 41.093 166.758,40.984 152.355,40.584 148.200 L 40.200 144.200 30.800 144.200 L 21.400 144.200 21.434 141.682 L 21.467 139.163 17.555 139.230 L 13.642 139.298 13.653 141.587 M48.870 141.397 C 48.978 141.288,49.067 141.453,49.067 141.762 C 49.067 142.206,48.914 142.228,48.333 141.866 C 47.930 141.614,47.600 141.249,47.600 141.055 C 47.600 140.861,47.842 140.903,48.137 141.148 C 48.432 141.393,48.762 141.505,48.870 141.397 M73.774 162.740 C 77.982 164.655,82.915 165.990,85.857 166.011 C 87.978 166.025,92.177 167.218,94.687 168.519 C 96.739 169.582,103.729 171.196,106.292 171.199 C 111.837 171.204,112.170 172.213,112.300 189.400 C 112.443 208.318,112.535 208.624,118.310 209.555 C 123.802 210.439,124.802 212.457,124.801 222.649 C 124.800 229.619,121.996 233.606,118.303 231.888 C 116.005 230.819,113.105 230.052,108.800 229.375 C 103.195 228.493,100.800 226.749,100.800 223.548 C 100.800 223.163,100.620 222.736,100.400 222.600 C 100.180 222.464,100.000 221.143,100.000 219.665 C 100.000 217.205,99.903 216.895,98.854 215.989 C 97.483 214.805,95.451 213.600,94.825 213.600 C 94.577 213.600,93.705 213.301,92.887 212.935 C 92.069 212.570,90.770 212.027,90.000 211.728 C 88.212 211.035,81.135 209.602,79.471 209.595 C 77.345 209.586,71.169 207.465,69.720 206.246 C 69.429 206.001,68.473 205.125,67.596 204.300 L 66.000 202.801 66.000 183.245 L 66.000 163.689 67.700 162.864 C 69.834 161.830,71.690 161.792,73.774 162.740 M29.200 177.140 C 29.200 177.364,28.705 177.626,28.100 177.722 C 27.495 177.818,27.765 177.875,28.699 177.848 C 29.634 177.822,30.343 177.631,30.274 177.425 C 30.097 176.891,29.200 176.653,29.200 177.140 " stroke="none" fill="#2aade4" fill-rule="evenodd"></path><path id="path2" d="M338.100 80.676 C 338.485 80.776,339.115 80.776,339.500 80.676 C 339.885 80.575,339.570 80.493,338.800 80.493 C 338.030 80.493,337.715 80.575,338.100 80.676 M117.640 87.966 C 117.812 92.178,116.313 93.325,109.743 94.006 C 106.430 94.349,105.782 94.537,105.260 95.304 C 104.031 97.109,101.999 98.721,100.518 99.064 C 99.351 99.335,98.867 99.717,98.425 100.716 C 98.012 101.648,97.234 102.316,95.674 103.079 C 94.085 103.856,93.353 104.493,92.957 105.442 C 92.627 106.230,91.782 107.096,90.807 107.644 C 89.923 108.141,89.200 108.693,89.200 108.871 C 89.200 110.222,87.671 112.396,86.129 113.239 C 84.748 113.993,84.350 114.461,84.140 115.578 C 83.696 117.946,82.518 120.132,80.823 121.734 C 79.930 122.577,79.199 123.567,79.199 123.934 C 79.198 124.300,79.146 126.794,79.083 129.475 C 78.951 135.067,78.602 134.604,83.287 135.054 C 86.390 135.353,88.297 136.342,88.913 137.975 C 89.411 139.295,90.765 139.600,96.129 139.600 C 104.150 139.600,107.948 140.716,108.542 143.246 L 108.788 144.292 115.894 144.514 C 124.929 144.796,126.909 145.366,128.001 148.001 L 128.474 149.145 134.737 149.391 C 138.182 149.526,159.540 149.786,182.200 149.968 C 220.967 150.281,226.412 150.429,227.400 151.203 C 229.153 152.577,229.669 152.589,300.229 152.796 C 364.438 152.985,369.506 153.049,370.131 153.674 C 370.502 154.044,371.119 154.448,371.502 154.571 C 371.886 154.694,372.695 155.743,373.300 156.903 L 374.400 159.013 374.400 229.906 C 374.400 268.898,374.253 300.800,374.073 300.800 C 373.546 300.800,372.400 304.916,372.400 306.809 C 372.400 309.642,371.200 313.237,369.733 314.800 C 369.010 315.570,367.856 317.280,367.168 318.600 C 365.870 321.092,364.903 322.400,364.359 322.400 C 363.810 322.400,362.001 324.266,361.987 324.846 C 361.962 325.865,360.568 327.097,358.174 328.217 C 356.868 328.828,355.350 329.811,354.800 330.402 C 353.356 331.955,352.032 332.686,350.102 332.996 C 349.168 333.147,348.303 333.434,348.178 333.635 C 348.054 333.836,347.642 334.000,347.263 334.000 C 346.883 334.000,346.276 334.502,345.914 335.115 C 344.215 337.992,352.116 337.756,246.400 338.088 C 194.370 338.252,145.050 338.493,136.800 338.623 C 117.311 338.931,115.427 338.622,114.742 335.000 C 114.612 334.310,114.168 334.166,111.502 333.949 C 107.591 333.630,105.752 332.802,105.400 331.200 C 105.095 329.811,104.759 329.545,102.601 328.984 C 101.101 328.594,100.977 328.448,100.631 326.672 C 100.278 324.859,100.185 324.757,98.514 324.337 C 96.577 323.849,95.600 322.544,95.600 320.443 C 95.600 319.359,95.423 319.196,93.715 318.714 C 91.587 318.113,91.042 317.017,90.480 312.200 C 90.226 310.024,90.106 309.789,89.196 309.683 C 87.625 309.499,86.404 307.375,86.377 304.775 C 86.331 300.480,85.981 299.524,84.273 299.036 C 82.643 298.570,80.800 297.057,80.800 296.185 C 80.800 295.622,80.306 295.423,77.911 295.019 C 77.092 294.881,76.276 294.508,76.099 294.190 C 75.898 293.832,75.053 293.586,73.871 293.541 C 72.823 293.501,71.873 293.318,71.760 293.135 C 71.286 292.369,70.952 292.900,70.975 294.380 C 71.008 296.492,71.622 296.995,74.211 297.028 C 78.718 297.086,78.850 297.392,78.938 308.022 L 79.000 315.591 80.112 315.979 C 82.624 316.855,83.994 319.085,83.997 322.305 L 84.000 324.810 85.899 325.705 C 88.002 326.696,89.166 327.831,89.187 328.910 C 89.194 329.315,89.970 330.085,90.994 330.703 C 92.124 331.386,93.123 332.419,93.693 333.493 C 94.191 334.432,94.752 335.200,94.939 335.200 C 96.286 335.200,97.998 336.624,98.748 338.369 L 99.571 340.282 102.164 340.524 C 103.590 340.657,105.171 340.998,105.678 341.283 C 107.144 342.105,108.400 343.295,108.400 343.861 C 108.400 345.034,110.163 345.497,114.919 345.573 C 121.366 345.677,123.674 347.122,122.947 350.600 C 122.809 351.260,122.707 352.104,122.721 352.476 C 122.736 352.863,122.374 353.224,121.873 353.321 C 121.393 353.415,171.220 353.495,232.600 353.499 C 293.980 353.504,343.885 353.425,343.500 353.324 C 342.549 353.076,342.365 349.606,343.246 348.545 C 344.165 347.437,348.671 346.660,351.477 347.125 C 354.883 347.690,355.991 347.239,356.714 344.995 C 357.462 342.676,358.120 342.330,361.518 342.475 C 364.712 342.612,364.959 342.439,365.853 339.432 C 366.092 338.627,366.753 337.971,367.976 337.325 C 370.256 336.120,371.200 335.254,371.200 334.367 C 371.200 333.485,372.866 332.137,374.361 331.808 C 374.980 331.673,375.667 331.165,375.888 330.681 C 376.110 330.196,376.684 328.954,377.163 327.921 L 378.035 326.042 380.118 326.282 C 381.263 326.414,382.332 326.720,382.494 326.961 C 382.656 327.203,382.791 326.747,382.794 325.949 C 382.797 325.144,382.534 324.277,382.203 324.002 C 379.005 321.348,381.426 315.776,385.645 316.081 C 388.335 316.275,388.567 315.935,387.100 313.950 L 386.200 312.733 386.200 219.800 L 386.200 126.867 387.125 125.616 C 388.834 123.304,388.262 122.229,385.384 122.349 C 381.866 122.496,381.372 121.838,381.488 117.161 C 381.582 113.378,381.288 112.800,379.271 112.800 C 378.046 112.800,376.745 111.502,376.031 109.570 C 375.567 108.311,375.015 107.627,374.120 107.200 C 372.593 106.472,371.200 104.932,371.200 103.972 C 371.200 103.505,370.597 103.036,369.420 102.586 C 367.362 101.801,366.478 100.950,366.048 99.343 C 365.742 98.197,365.443 97.984,361.873 96.372 L 359.947 95.503 360.045 93.251 C 360.114 91.655,360.325 90.921,360.771 90.728 C 361.148 90.565,360.799 90.445,359.900 90.428 C 359.075 90.413,358.400 90.575,358.400 90.790 C 358.400 92.746,349.819 92.755,347.968 90.800 C 347.314 90.110,347.185 86.358,347.800 85.906 C 348.700 85.245,343.663 85.653,341.696 86.400 C 339.641 87.181,338.595 87.200,297.496 87.219 C 256.668 87.238,249.086 87.434,247.334 88.517 C 247.102 88.660,219.089 88.793,185.081 88.812 C 117.337 88.850,121.416 88.990,120.318 86.581 C 119.993 85.867,119.555 85.600,118.707 85.600 L 117.543 85.600 117.640 87.966 M100.438 87.400 C 100.371 88.451,101.047 88.737,101.578 87.884 C 102.070 87.094,102.062 87.055,101.503 87.517 C 100.992 87.939,100.840 87.939,100.670 87.517 C 100.556 87.233,100.452 87.180,100.438 87.400 M366.666 90.800 C 367.142 90.992,367.722 91.475,367.954 91.874 C 368.186 92.274,368.381 92.403,368.388 92.162 C 368.405 91.554,367.057 90.395,366.369 90.425 C 366.056 90.439,366.190 90.608,366.666 90.800 M89.200 95.600 C 89.200 95.820,89.470 96.000,89.800 96.000 C 90.130 96.000,90.400 95.820,90.400 95.600 C 90.400 95.380,90.130 95.200,89.800 95.200 C 89.470 95.200,89.200 95.380,89.200 95.600 M377.070 100.293 C 376.968 100.462,377.135 100.832,377.442 101.116 C 377.900 101.539,378.000 101.526,378.000 101.039 C 378.000 100.360,377.347 99.836,377.070 100.293 M313.276 111.819 C 315.259 112.052,315.741 112.292,317.033 113.687 C 317.847 114.568,319.102 115.534,319.820 115.834 C 324.989 117.994,325.043 130.371,319.896 133.191 C 318.849 133.764,317.713 134.632,317.372 135.119 C 315.360 137.991,309.077 137.996,306.400 135.129 C 305.850 134.539,304.950 133.944,304.400 133.805 C 302.543 133.335,300.800 130.944,300.800 128.866 C 300.800 127.692,300.201 126.320,299.286 125.400 C 298.491 124.601,298.492 124.598,299.477 123.545 C 300.083 122.897,300.551 121.815,300.688 120.745 C 301.031 118.069,302.164 116.140,303.691 115.635 C 304.411 115.397,305.506 114.568,306.124 113.793 C 307.294 112.325,309.365 111.172,310.400 111.413 C 310.730 111.490,312.024 111.673,313.276 111.819 M346.225 113.851 C 347.119 114.828,348.737 116.207,349.820 116.916 C 353.606 119.393,353.456 129.729,349.600 132.110 C 347.428 133.451,346.608 134.174,345.487 135.736 C 343.920 137.917,336.737 137.372,334.813 134.926 C 334.413 134.417,333.772 134.000,333.390 134.000 C 332.416 134.000,330.000 131.327,330.000 130.250 C 330.000 129.759,329.419 128.568,328.709 127.602 C 327.032 125.322,326.972 123.439,328.522 121.781 C 329.128 121.131,329.717 120.150,329.830 119.600 C 330.193 117.829,330.988 116.638,332.410 115.740 C 333.175 115.257,334.375 114.269,335.078 113.545 C 337.886 110.653,343.437 110.805,346.225 113.851 M286.640 112.030 C 287.278 112.266,288.340 113.200,289.000 114.105 C 289.760 115.147,290.664 115.871,291.466 116.078 C 294.427 116.843,296.039 131.600,293.161 131.600 C 292.962 131.600,292.800 131.856,292.800 132.168 C 292.800 132.481,292.282 132.850,291.648 132.989 C 290.475 133.247,288.003 135.174,287.997 135.836 C 287.978 138.093,278.522 137.475,277.790 135.168 C 277.637 134.686,276.708 133.950,275.611 133.442 C 272.797 132.138,272.492 131.676,271.943 127.883 C 271.074 121.870,272.489 116.000,274.809 116.000 C 275.632 116.000,277.177 114.700,277.772 113.505 C 278.661 111.723,283.596 110.902,286.640 112.030 M316.800 166.620 C 315.810 166.904,313.797 167.150,312.326 167.168 C 309.059 167.207,303.945 168.227,303.400 168.948 C 302.151 170.600,297.667 171.757,290.069 172.387 C 285.914 172.732,285.366 172.875,283.469 174.112 C 280.523 176.032,279.683 176.267,273.200 176.987 C 265.332 177.860,265.377 177.850,264.193 178.886 C 262.801 180.103,258.621 181.563,256.473 181.584 C 252.464 181.622,245.835 182.885,244.565 183.854 C 242.678 185.293,239.391 186.249,235.371 186.529 C 230.113 186.894,226.194 187.812,224.559 189.059 C 222.893 190.329,217.964 191.592,214.658 191.597 C 211.631 191.601,207.729 192.620,206.373 193.761 C 204.356 195.459,198.235 196.800,192.507 196.800 C 188.270 196.800,186.158 197.407,185.766 198.738 C 185.284 200.373,185.099 305.600,185.578 305.600 C 186.124 305.600,187.999 309.652,188.002 310.839 C 188.004 311.367,188.274 312.316,188.602 312.946 C 189.045 313.794,189.200 315.469,189.200 319.402 L 189.200 324.712 190.974 325.546 L 192.748 326.380 198.864 325.539 C 204.235 324.801,205.110 324.575,206.054 323.684 C 207.312 322.496,211.116 321.214,213.400 321.207 C 215.917 321.199,224.800 319.926,224.800 319.573 C 224.800 318.074,229.726 316.522,236.032 316.032 C 241.505 315.607,243.700 315.034,245.602 313.531 C 247.227 312.248,251.335 311.320,257.000 310.959 C 260.743 310.720,264.176 309.877,264.698 309.069 C 265.500 307.824,274.849 305.629,279.440 305.606 C 280.145 305.603,281.354 305.122,282.240 304.492 C 283.098 303.883,284.340 303.136,285.000 302.832 C 286.193 302.283,296.085 300.841,298.842 300.814 C 299.841 300.804,300.826 300.392,302.042 299.475 C 304.232 297.823,307.206 296.935,311.600 296.618 C 313.470 296.484,316.117 296.170,317.482 295.921 L 319.963 295.468 320.464 293.634 C 321.382 290.273,321.426 169.432,320.510 167.505 C 319.744 165.892,319.525 165.840,316.800 166.620 " stroke="none" fill="#3954a4" fill-rule="evenodd"></path><path id="path3" d="M113.362 86.083 C 113.716 86.281,114.140 86.362,114.303 86.262 C 114.466 86.162,114.653 87.041,114.717 88.217 C 114.818 90.044,114.713 90.418,113.996 90.802 C 112.203 91.762,109.773 92.224,108.000 91.944 C 105.553 91.557,103.182 91.535,103.281 91.900 C 103.785 93.769,101.734 96.993,99.783 97.397 C 99.242 97.508,98.385 97.685,97.877 97.788 C 97.323 97.901,96.724 98.493,96.377 99.270 C 95.905 100.329,95.449 100.652,93.868 101.049 C 92.088 101.495,90.388 102.543,90.463 103.148 C 90.603 104.264,90.213 104.868,89.032 105.361 C 87.516 105.994,87.031 106.702,86.645 108.845 C 86.367 110.389,85.546 111.339,84.114 111.775 C 83.485 111.967,83.152 112.473,82.966 113.523 C 82.822 114.335,82.238 115.752,81.669 116.671 L 80.632 118.342 78.616 118.110 C 77.507 117.982,76.489 117.708,76.353 117.501 C 75.579 116.320,75.699 119.322,76.479 120.644 C 77.670 122.663,77.953 128.002,77.055 131.508 C 76.201 134.842,76.340 135.049,79.935 135.809 C 83.387 136.538,84.280 136.903,85.646 138.144 C 87.098 139.464,90.652 140.399,94.235 140.405 C 99.253 140.412,105.103 142.127,105.736 143.777 C 105.977 144.407,107.219 144.630,114.600 145.374 C 120.961 146.015,123.176 146.603,124.721 148.061 C 125.890 149.164,126.811 149.409,132.000 149.993 C 139.389 150.825,141.109 151.138,142.797 151.953 C 144.546 152.798,144.656 152.800,183.775 152.818 C 219.578 152.834,223.140 152.894,224.600 153.507 C 226.074 154.126,231.822 154.188,297.775 154.299 L 369.350 154.419 370.662 155.420 C 372.943 157.160,372.854 153.817,372.683 231.600 C 372.529 301.759,372.502 303.890,371.738 307.000 C 370.827 310.703,369.908 312.974,369.123 313.459 C 368.820 313.647,367.948 315.039,367.186 316.554 C 366.424 318.069,364.982 320.139,363.982 321.154 C 362.982 322.169,361.511 323.824,360.713 324.830 C 359.712 326.092,358.413 327.077,356.531 328.004 C 355.029 328.743,353.475 329.761,353.078 330.265 C 352.390 331.139,349.216 332.800,348.234 332.800 C 347.680 332.800,344.752 334.257,344.427 334.694 C 344.080 335.161,341.630 336.045,339.400 336.507 C 338.083 336.780,305.729 337.040,244.600 337.270 C 193.560 337.462,145.140 337.660,137.000 337.709 C 120.607 337.810,119.615 337.695,117.351 335.431 C 116.411 334.491,115.300 333.941,113.327 333.436 C 109.378 332.427,107.647 331.604,107.091 330.472 C 106.821 329.923,106.330 329.342,106.000 329.181 C 105.670 329.020,104.708 328.553,103.862 328.144 C 102.771 327.616,102.043 326.848,101.355 325.500 C 100.822 324.455,100.133 323.600,99.824 323.600 C 99.047 323.600,96.800 321.652,96.800 320.978 C 96.800 319.726,95.419 317.615,94.357 317.245 C 93.202 316.842,91.600 314.048,91.600 312.436 C 91.600 310.942,90.385 308.033,89.236 306.775 C 88.306 305.757,88.047 305.025,87.827 302.795 C 87.669 301.189,87.319 299.865,86.979 299.582 C 86.660 299.318,86.400 298.876,86.400 298.599 C 86.400 297.209,81.553 294.400,79.154 294.400 C 78.473 294.400,77.488 293.926,76.661 293.200 C 75.565 292.237,74.929 292.000,73.447 292.000 C 72.251 292.000,71.590 291.824,71.572 291.500 C 71.556 291.225,71.403 291.360,71.230 291.800 C 70.811 292.869,71.705 293.436,73.996 293.553 C 75.042 293.606,75.924 293.879,76.107 294.206 C 76.280 294.515,77.092 294.881,77.911 295.019 C 80.306 295.423,80.800 295.622,80.800 296.185 C 80.800 297.057,82.643 298.570,84.273 299.036 C 85.981 299.524,86.331 300.480,86.377 304.775 C 86.404 307.375,87.625 309.499,89.196 309.683 C 90.106 309.789,90.226 310.024,90.480 312.200 C 91.042 317.017,91.587 318.113,93.715 318.714 C 95.423 319.196,95.600 319.359,95.600 320.443 C 95.600 322.544,96.577 323.849,98.514 324.337 C 100.185 324.757,100.278 324.859,100.631 326.672 C 100.977 328.448,101.101 328.594,102.601 328.984 C 104.759 329.545,105.095 329.811,105.400 331.200 C 105.752 332.802,107.591 333.630,111.502 333.949 C 114.168 334.166,114.612 334.310,114.742 335.000 C 115.427 338.622,117.311 338.931,136.800 338.623 C 145.050 338.493,194.370 338.252,246.400 338.088 C 352.116 337.756,344.215 337.992,345.914 335.115 C 346.276 334.502,346.883 334.000,347.263 334.000 C 347.642 334.000,348.054 333.836,348.178 333.635 C 348.303 333.434,349.168 333.147,350.102 332.996 C 352.032 332.686,353.356 331.955,354.800 330.402 C 355.350 329.811,356.868 328.828,358.174 328.217 C 360.568 327.097,361.962 325.865,361.987 324.846 C 362.001 324.266,363.810 322.400,364.359 322.400 C 364.903 322.400,365.870 321.092,367.168 318.600 C 367.856 317.280,369.010 315.570,369.733 314.800 C 371.200 313.237,372.400 309.642,372.400 306.809 C 372.400 304.916,373.546 300.800,374.073 300.800 C 374.253 300.800,374.400 268.898,374.400 229.906 L 374.400 159.013 373.300 156.903 C 372.695 155.743,371.886 154.694,371.502 154.571 C 371.119 154.448,370.502 154.044,370.131 153.674 C 369.506 153.049,364.438 152.985,300.229 152.796 C 229.669 152.589,229.153 152.577,227.400 151.203 C 226.412 150.429,220.967 150.281,182.200 149.968 C 159.540 149.786,138.182 149.526,134.737 149.391 L 128.474 149.145 128.001 148.001 C 126.909 145.366,124.929 144.796,115.894 144.514 L 108.788 144.292 108.542 143.246 C 107.948 140.716,104.150 139.600,96.129 139.600 C 90.765 139.600,89.411 139.295,88.913 137.975 C 88.297 136.342,86.390 135.353,83.287 135.054 C 78.602 134.604,78.951 135.067,79.083 129.475 C 79.146 126.794,79.198 124.300,79.199 123.934 C 79.199 123.567,79.930 122.577,80.823 121.734 C 82.518 120.132,83.696 117.946,84.140 115.578 C 84.350 114.461,84.748 113.993,86.129 113.239 C 87.671 112.396,89.200 110.222,89.200 108.871 C 89.200 108.693,89.923 108.141,90.807 107.644 C 91.782 107.096,92.627 106.230,92.957 105.442 C 93.353 104.493,94.085 103.856,95.674 103.079 C 97.234 102.316,98.012 101.648,98.425 100.716 C 98.867 99.717,99.351 99.335,100.518 99.064 C 101.999 98.721,104.031 97.109,105.260 95.304 C 105.782 94.537,106.430 94.349,109.743 94.006 C 116.296 93.326,117.898 92.091,117.680 87.888 L 117.559 85.577 115.139 85.650 C 113.462 85.700,112.916 85.833,113.362 86.083 M342.233 85.900 C 341.916 86.217,290.465 86.617,187.000 87.104 C 127.723 87.383,124.102 87.361,122.449 86.700 C 120.207 85.804,119.875 85.819,120.398 86.796 C 121.555 88.958,118.056 88.849,185.081 88.812 C 219.089 88.793,247.112 88.653,247.356 88.501 C 248.698 87.663,256.139 87.473,296.400 87.248 C 336.526 87.023,340.729 86.938,342.000 86.333 C 342.770 85.966,343.205 85.651,342.967 85.633 C 342.728 85.615,342.398 85.735,342.233 85.900 M347.800 85.906 C 347.185 86.358,347.314 90.110,347.968 90.800 C 349.296 92.202,355.201 92.834,357.220 91.790 C 358.902 90.920,358.681 90.394,356.900 91.030 C 354.900 91.743,353.870 91.726,351.369 90.937 L 349.267 90.275 349.133 88.132 C 349.044 86.702,349.145 86.046,349.436 86.158 C 349.676 86.250,350.126 86.165,350.436 85.969 C 350.829 85.721,350.575 85.612,349.600 85.612 C 348.830 85.612,348.020 85.744,347.800 85.906 M360.751 90.767 C 360.324 90.930,360.113 91.671,360.045 93.251 L 359.947 95.503 361.873 96.372 C 365.443 97.984,365.742 98.197,366.048 99.343 C 366.478 100.950,367.362 101.801,369.420 102.586 C 370.597 103.036,371.200 103.505,371.200 103.972 C 371.200 104.932,372.593 106.472,374.120 107.200 C 375.015 107.627,375.567 108.311,376.031 109.570 C 376.745 111.502,378.046 112.800,379.271 112.800 C 381.288 112.800,381.582 113.378,381.488 117.161 C 381.371 121.858,381.844 122.473,385.479 122.356 C 387.674 122.284,388.000 122.174,388.000 121.503 C 388.000 120.807,387.747 120.745,385.420 120.866 C 382.312 121.027,382.262 120.948,382.393 116.090 C 382.496 112.258,382.238 111.775,379.877 111.388 C 377.616 111.017,376.800 110.217,376.800 108.371 C 376.800 106.009,376.502 105.600,374.781 105.600 C 372.995 105.600,372.918 105.516,372.753 103.400 C 372.606 101.497,372.286 101.214,370.274 101.206 C 368.014 101.197,367.200 100.617,367.200 99.014 C 367.200 97.312,366.315 96.400,364.660 96.400 C 362.040 96.400,360.649 93.725,361.978 91.240 C 362.380 90.490,361.929 90.315,360.751 90.767 M375.600 100.330 C 375.600 100.528,375.105 100.599,374.500 100.490 C 373.895 100.380,373.502 100.402,373.627 100.539 C 373.871 100.806,377.200 101.208,377.200 100.971 C 377.200 100.892,376.840 100.635,376.400 100.400 C 375.960 100.165,375.600 100.133,375.600 100.330 M308.524 111.828 C 307.822 112.133,306.742 113.017,306.124 113.793 C 305.506 114.568,304.411 115.397,303.691 115.635 C 302.164 116.140,301.031 118.069,300.688 120.745 C 300.551 121.815,300.083 122.897,299.477 123.545 C 298.492 124.598,298.491 124.601,299.286 125.400 C 300.201 126.320,300.800 127.692,300.800 128.866 C 300.800 130.944,302.543 133.335,304.400 133.805 C 304.950 133.944,305.850 134.539,306.400 135.129 C 309.077 137.996,315.360 137.991,317.372 135.119 C 317.713 134.632,318.849 133.764,319.896 133.191 C 325.043 130.371,324.989 117.994,319.820 115.834 C 319.102 115.534,317.847 114.568,317.033 113.687 C 315.741 112.292,315.259 112.052,313.276 111.819 C 312.024 111.673,310.730 111.490,310.400 111.413 C 310.070 111.336,309.226 111.523,308.524 111.828 M337.878 111.800 C 337.042 112.035,335.782 112.821,335.078 113.545 C 334.375 114.269,333.175 115.257,332.410 115.740 C 330.988 116.638,330.193 117.829,329.830 119.600 C 329.717 120.150,329.128 121.131,328.522 121.781 C 326.972 123.439,327.032 125.322,328.709 127.602 C 329.419 128.568,330.000 129.759,330.000 130.250 C 330.000 131.327,332.416 134.000,333.390 134.000 C 333.772 134.000,334.413 134.417,334.813 134.926 C 336.737 137.372,343.920 137.917,345.487 135.736 C 346.608 134.174,347.428 133.451,349.600 132.110 C 351.610 130.869,351.981 130.023,352.237 126.098 C 352.622 120.178,352.168 118.452,349.820 116.916 C 348.737 116.207,347.119 114.828,346.225 113.851 C 344.346 111.799,340.896 110.951,337.878 111.800 M279.208 112.114 C 278.662 112.390,278.016 113.016,277.772 113.505 C 277.177 114.700,275.632 116.000,274.809 116.000 C 272.489 116.000,271.074 121.870,271.943 127.883 C 272.492 131.676,272.797 132.138,275.611 133.442 C 276.708 133.950,277.637 134.686,277.790 135.168 C 278.522 137.475,287.978 138.093,287.997 135.836 C 288.003 135.174,290.475 133.247,291.648 132.989 C 292.282 132.850,292.800 132.481,292.800 132.168 C 292.800 131.856,292.962 131.600,293.161 131.600 C 296.039 131.600,294.427 116.843,291.466 116.078 C 290.664 115.871,289.760 115.147,289.000 114.105 C 287.240 111.691,282.107 110.647,279.208 112.114 M312.827 113.045 C 314.021 113.400,315.629 114.184,316.399 114.787 C 317.170 115.391,318.560 116.360,319.489 116.940 C 321.969 118.491,322.537 119.874,322.553 124.400 C 322.572 129.697,321.135 132.023,316.650 133.950 C 316.458 134.032,315.989 134.411,315.608 134.792 C 314.358 136.042,310.187 136.232,308.668 135.108 C 307.971 134.591,306.590 133.825,305.600 133.405 C 303.080 132.336,302.367 131.467,301.530 128.450 C 300.040 123.077,301.989 116.000,304.958 116.000 C 305.206 116.000,305.934 115.505,306.576 114.900 C 309.390 112.248,309.767 112.136,312.827 113.045 M342.027 113.045 C 343.222 113.399,344.830 114.257,345.600 114.950 C 346.370 115.644,347.847 116.819,348.883 117.561 C 350.783 118.923,351.150 119.746,351.667 123.800 C 352.122 127.357,350.190 130.674,346.083 133.393 C 345.157 134.005,344.400 134.639,344.400 134.801 C 344.400 134.963,343.635 135.204,342.700 135.335 C 341.765 135.467,340.549 135.683,339.997 135.815 C 339.299 135.983,338.552 135.756,337.538 135.068 C 336.738 134.525,335.659 133.951,335.141 133.794 C 332.798 133.081,330.000 129.564,330.000 127.333 C 330.000 126.904,329.736 126.204,329.413 125.776 C 328.753 124.904,328.607 123.600,329.168 123.600 C 329.371 123.600,329.656 123.015,329.803 122.300 C 330.417 119.309,332.304 116.338,333.916 115.827 C 334.353 115.688,335.154 115.175,335.696 114.687 C 338.276 112.363,339.052 112.162,342.027 113.045 M287.372 114.200 C 288.188 114.969,289.625 116.050,290.564 116.600 C 294.899 119.140,295.102 130.121,290.853 132.254 C 290.054 132.655,288.558 133.662,287.528 134.492 C 285.071 136.472,280.966 136.727,279.365 135.000 C 278.855 134.450,278.250 134.000,278.019 134.000 C 277.789 134.000,277.600 133.864,277.600 133.698 C 277.600 133.531,276.745 133.002,275.700 132.520 C 273.060 131.304,272.600 130.129,272.600 124.600 C 272.600 119.114,273.046 117.907,275.558 116.587 C 277.856 115.380,278.800 114.643,278.800 114.056 C 278.800 113.805,279.070 113.600,279.400 113.600 C 279.730 113.600,280.000 113.420,280.000 113.200 C 280.000 111.987,285.870 112.783,287.372 114.200 M386.732 126.066 C 386.164 127.064,385.665 304.063,386.213 310.298 C 386.393 312.340,386.701 313.461,387.256 314.098 L 388.045 315.000 387.523 314.000 C 386.862 312.736,386.530 129.241,387.184 126.873 C 387.660 125.150,387.459 124.791,386.732 126.066 M317.800 165.050 C 315.936 165.767,315.996 165.755,310.000 166.604 C 304.596 167.370,301.410 168.207,299.938 169.249 C 299.354 169.662,298.577 170.000,298.212 170.000 C 297.846 170.000,297.188 170.192,296.749 170.427 C 296.310 170.662,294.477 171.018,292.676 171.217 C 287.200 171.824,283.299 172.660,281.096 173.697 C 277.850 175.224,274.909 176.028,271.200 176.400 C 267.616 176.760,262.350 177.870,262.005 178.339 C 261.263 179.344,254.826 181.033,249.631 181.586 C 245.914 181.981,244.575 182.351,241.200 183.914 C 238.912 184.973,232.575 186.348,229.800 186.387 C 228.029 186.411,225.186 187.190,222.655 188.343 C 218.903 190.054,217.917 190.400,216.795 190.400 C 213.757 190.400,205.374 192.405,203.632 193.548 C 202.254 194.452,199.571 195.154,195.800 195.598 C 190.313 196.244,186.785 196.901,186.522 197.327 C 186.360 197.589,186.544 197.623,187.034 197.421 C 187.455 197.247,190.140 196.955,193.000 196.771 C 200.932 196.262,204.562 195.411,206.600 193.582 C 207.680 192.613,211.789 191.601,214.658 191.597 C 217.964 191.592,222.893 190.329,224.559 189.059 C 226.194 187.812,230.113 186.894,235.371 186.529 C 239.391 186.249,242.678 185.293,244.565 183.854 C 245.835 182.885,252.464 181.622,256.473 181.584 C 258.621 181.563,262.801 180.103,264.193 178.886 C 265.377 177.850,265.332 177.860,273.200 176.987 C 279.683 176.267,280.523 176.032,283.469 174.112 C 285.366 172.875,285.914 172.732,290.069 172.387 C 297.667 171.757,302.151 170.600,303.400 168.948 C 303.944 168.229,309.089 167.200,312.142 167.200 C 313.512 167.200,315.669 166.930,316.935 166.600 C 319.903 165.827,319.687 165.772,320.510 167.505 C 321.426 169.432,321.382 290.273,320.464 293.634 L 319.963 295.468 317.482 295.921 C 316.117 296.170,313.470 296.484,311.600 296.618 C 307.206 296.935,304.232 297.823,302.042 299.475 C 300.826 300.392,299.841 300.804,298.842 300.814 C 296.085 300.841,286.193 302.283,285.000 302.832 C 284.340 303.136,283.098 303.883,282.240 304.492 C 281.354 305.122,280.145 305.603,279.440 305.606 C 274.849 305.629,265.500 307.824,264.698 309.069 C 264.176 309.877,260.743 310.720,257.000 310.959 C 251.335 311.320,247.227 312.248,245.602 313.531 C 243.700 315.034,241.505 315.607,236.032 316.032 C 229.726 316.522,224.800 318.074,224.800 319.573 C 224.800 319.926,215.917 321.199,213.400 321.207 C 211.116 321.214,207.312 322.496,206.054 323.684 C 205.110 324.575,204.235 324.801,198.864 325.539 L 192.748 326.380 190.974 325.546 L 189.200 324.712 189.200 319.402 C 189.200 315.469,189.045 313.794,188.602 312.946 C 188.274 312.316,188.004 311.367,188.002 310.839 C 188.000 309.858,186.165 305.600,185.745 305.600 C 185.618 305.600,185.643 305.915,185.800 306.300 C 186.733 308.583,187.258 312.088,187.432 317.200 C 187.791 327.772,188.129 328.143,196.200 326.823 C 197.740 326.572,200.080 326.198,201.400 325.994 C 204.358 325.535,208.071 324.518,208.374 324.083 C 209.002 323.182,214.415 321.872,220.373 321.179 C 223.851 320.774,226.825 320.010,227.679 319.301 C 228.859 318.321,231.927 317.512,238.000 316.579 C 243.874 315.677,246.234 315.093,247.600 314.203 C 248.631 313.531,253.742 312.011,255.000 312.002 C 257.511 311.983,264.676 310.499,266.400 309.640 C 268.862 308.414,272.739 307.211,274.248 307.205 C 276.355 307.196,283.710 305.363,285.340 304.441 C 287.100 303.444,292.700 302.007,294.839 302.003 C 297.008 301.999,303.590 300.529,304.341 299.882 C 305.681 298.726,310.968 297.372,315.800 296.947 C 320.627 296.523,321.086 296.138,321.389 292.270 C 322.138 282.674,321.416 166.622,320.600 165.513 C 319.664 164.240,319.834 164.268,317.800 165.050 M70.805 297.651 C 70.814 300.324,71.966 303.044,72.013 300.500 C 72.025 299.839,72.055 299.840,72.565 300.512 C 73.015 301.104,73.143 301.125,73.329 300.640 C 73.851 299.281,75.775 300.515,76.118 302.428 C 76.294 303.403,76.654 305.190,76.918 306.400 C 77.183 307.610,77.400 310.615,77.400 313.077 C 77.400 317.923,77.555 318.323,79.484 318.470 C 81.012 318.586,81.317 319.127,82.191 323.264 C 82.830 326.289,82.860 326.337,84.495 326.991 C 86.315 327.720,86.950 328.350,87.824 330.293 C 88.173 331.069,89.014 331.897,89.928 332.363 C 90.968 332.894,91.685 333.658,92.187 334.770 C 92.591 335.667,93.198 336.400,93.536 336.400 C 94.699 336.400,96.799 338.203,97.593 339.883 C 98.414 341.621,98.980 341.920,102.822 342.651 C 104.903 343.046,105.546 343.497,106.174 345.000 C 106.822 346.549,107.181 346.677,111.682 346.959 C 120.107 347.487,121.508 348.362,120.203 352.274 C 120.116 352.535,120.260 352.836,120.522 352.943 C 120.785 353.049,120.655 353.151,120.233 353.168 C 119.812 353.186,119.568 353.302,119.692 353.426 C 120.195 353.928,122.744 353.116,122.720 352.461 C 122.707 352.097,122.809 351.260,122.947 350.600 C 123.674 347.122,121.366 345.677,114.919 345.573 C 110.163 345.497,108.400 345.034,108.400 343.861 C 108.400 343.295,107.144 342.105,105.678 341.283 C 105.171 340.998,103.590 340.657,102.164 340.524 L 99.571 340.282 98.748 338.369 C 97.998 336.624,96.286 335.200,94.939 335.200 C 94.752 335.200,94.191 334.432,93.693 333.493 C 93.123 332.419,92.124 331.386,90.994 330.703 C 89.970 330.085,89.194 329.315,89.187 328.910 C 89.166 327.831,88.002 326.696,85.899 325.705 L 84.000 324.810 83.997 322.305 C 83.994 319.085,82.624 316.855,80.112 315.979 L 79.000 315.591 78.938 308.022 C 78.850 297.407,78.713 297.086,74.253 297.028 C 73.075 297.012,71.827 296.755,71.461 296.451 C 70.863 295.955,70.801 296.069,70.805 297.651 M392.520 302.400 C 392.520 303.610,392.595 304.105,392.687 303.500 C 392.778 302.895,392.778 301.905,392.687 301.300 C 392.595 300.695,392.520 301.190,392.520 302.400 M382.341 316.793 C 380.590 318.720,380.547 322.628,382.261 324.050 C 382.835 324.527,382.887 324.496,382.679 323.797 C 381.353 319.327,382.049 317.529,385.056 317.650 C 386.235 317.698,387.200 317.897,387.200 318.092 C 387.200 318.287,387.380 318.336,387.600 318.200 C 388.224 317.814,388.070 316.512,387.367 316.243 C 386.023 315.727,383.009 316.057,382.341 316.793 M377.163 327.921 C 376.684 328.954,376.110 330.196,375.888 330.681 C 375.667 331.165,374.980 331.673,374.361 331.808 C 372.866 332.137,371.200 333.485,371.200 334.367 C 371.200 335.254,370.256 336.120,367.976 337.325 C 366.753 337.971,366.092 338.627,365.853 339.432 C 364.959 342.439,364.712 342.612,361.518 342.475 C 358.120 342.330,357.462 342.676,356.714 344.995 C 355.991 347.239,354.883 347.690,351.477 347.125 C 346.256 346.260,342.653 347.871,342.701 351.048 C 342.735 353.295,342.723 353.283,345.291 353.464 C 346.929 353.580,347.199 353.525,346.500 353.219 C 345.744 352.889,345.600 352.515,345.600 350.877 C 345.600 348.291,346.271 348.000,352.245 348.000 C 357.790 348.000,358.358 347.774,358.327 345.580 C 358.300 343.563,357.957 343.751,362.200 343.451 C 366.198 343.169,366.800 342.789,366.800 340.552 C 366.800 338.899,367.539 338.176,369.561 337.853 C 371.278 337.578,372.000 336.760,372.000 335.088 C 372.000 333.742,373.201 332.800,374.915 332.800 C 376.286 332.800,376.394 332.704,376.824 331.100 C 377.726 327.738,377.837 327.600,379.618 327.600 C 380.517 327.600,381.601 327.786,382.026 328.014 C 382.605 328.324,382.798 328.299,382.794 327.914 C 382.782 326.895,382.165 326.518,380.118 326.282 L 378.035 326.042 377.163 327.921 M358.547 348.486 C 358.440 348.659,358.713 348.800,359.153 348.800 C 359.593 348.800,360.040 348.659,360.147 348.486 C 360.254 348.313,359.981 348.171,359.541 348.171 C 359.101 348.171,358.654 348.313,358.547 348.486 " stroke="none" fill="#5464a4" fill-rule="evenodd"></path><path id="path4" d="M120.395 81.544 C 119.897 82.077,119.920 82.116,120.581 81.863 C 121.043 81.685,121.463 81.772,121.662 82.086 C 121.905 82.470,121.989 82.432,121.994 81.935 C 121.998 81.462,122.293 81.303,123.013 81.382 C 123.570 81.443,123.915 81.382,123.780 81.246 C 123.283 80.748,120.946 80.953,120.395 81.544 M254.474 81.008 C 254.588 81.122,272.663 81.255,294.641 81.303 L 334.600 81.390 295.200 81.599 L 255.800 81.808 295.167 81.804 C 326.302 81.801,334.568 81.695,334.700 81.300 C 334.833 80.902,326.629 80.800,294.567 80.800 C 272.402 80.800,254.360 80.893,254.474 81.008 M339.200 80.957 C 339.200 81.346,340.327 81.492,340.836 81.169 C 341.247 80.909,341.101 80.811,340.300 80.806 C 339.695 80.803,339.200 80.871,339.200 80.957 M341.868 81.066 C 341.426 81.507,341.565 82.007,342.100 81.900 C 342.375 81.845,342.565 81.995,342.522 82.233 C 342.479 82.472,342.704 82.667,343.022 82.667 C 343.340 82.667,343.600 82.545,343.600 82.395 C 343.600 81.909,342.143 80.791,341.868 81.066 M119.744 85.232 C 119.790 85.480,120.812 86.070,122.014 86.542 L 124.200 87.400 187.000 87.104 C 290.465 86.617,341.916 86.217,342.233 85.900 C 342.398 85.735,292.478 85.600,231.300 85.600 C 155.735 85.600,120.001 85.469,119.863 85.190 C 119.744 84.950,119.695 84.967,119.744 85.232 M106.121 86.418 C 106.233 86.848,106.134 87.317,105.901 87.461 C 105.633 87.627,105.596 87.530,105.800 87.200 C 106.010 86.861,105.967 86.773,105.679 86.951 C 105.435 87.102,105.336 87.489,105.459 87.811 C 105.583 88.132,105.845 88.296,106.042 88.174 C 106.239 88.052,106.415 88.098,106.433 88.276 C 106.452 88.454,106.510 88.978,106.562 89.439 C 106.649 90.205,106.438 90.286,104.155 90.360 L 101.652 90.441 101.686 89.264 C 101.710 88.420,101.900 88.118,102.360 88.192 C 103.369 88.356,103.685 87.985,103.119 87.299 C 102.662 86.744,102.700 86.722,103.433 87.113 C 104.078 87.456,104.267 87.439,104.267 87.036 C 104.267 86.305,102.604 86.467,102.582 87.200 C 102.572 87.530,102.352 87.757,102.094 87.704 C 101.484 87.579,100.674 89.095,100.957 89.831 C 101.128 90.278,100.726 90.400,99.076 90.400 C 96.789 90.400,95.120 91.240,95.227 92.336 C 95.507 95.192,95.351 95.403,92.987 95.360 C 91.769 95.338,90.661 95.501,90.525 95.722 C 90.384 95.949,90.477 96.000,90.738 95.838 C 90.992 95.681,91.200 95.766,91.200 96.026 C 91.200 96.343,90.787 96.417,89.951 96.250 C 88.877 96.035,88.772 96.084,89.197 96.596 C 89.468 96.923,89.850 97.093,90.045 96.972 C 90.240 96.851,90.400 97.581,90.400 98.593 L 90.400 100.434 88.000 100.282 C 85.320 100.113,85.451 99.935,85.596 103.551 L 85.667 105.302 83.330 105.105 C 81.031 104.911,80.994 104.925,80.975 105.954 C 80.942 107.764,80.330 109.998,79.855 110.039 C 79.605 110.061,78.858 110.085,78.194 110.093 C 76.962 110.108,76.305 110.578,76.065 111.616 C 75.834 112.616,75.643 118.644,75.868 117.842 C 75.985 117.425,76.198 117.262,76.341 117.481 C 76.483 117.699,77.507 117.982,78.616 118.110 L 80.632 118.342 81.669 116.671 C 82.238 115.752,82.822 114.335,82.966 113.523 C 83.152 112.473,83.485 111.967,84.114 111.775 C 85.546 111.339,86.367 110.389,86.645 108.845 C 87.031 106.702,87.516 105.994,89.032 105.361 C 90.213 104.868,90.603 104.264,90.463 103.148 C 90.388 102.543,92.088 101.495,93.868 101.049 C 95.449 100.652,95.905 100.329,96.377 99.270 C 96.724 98.493,97.323 97.901,97.877 97.788 C 98.385 97.685,99.242 97.508,99.783 97.397 C 101.734 96.993,103.785 93.769,103.281 91.900 C 103.182 91.535,105.553 91.557,108.000 91.944 C 109.773 92.224,112.203 91.762,113.996 90.802 C 115.038 90.245,115.075 85.923,114.034 86.320 C 113.713 86.443,113.578 86.360,113.720 86.129 C 113.884 85.864,112.565 85.707,109.944 85.679 C 106.135 85.639,105.927 85.679,106.121 86.418 M350.436 85.958 C 350.126 86.161,349.676 86.250,349.436 86.158 C 349.145 86.046,349.044 86.704,349.134 88.142 L 349.268 90.294 351.596 90.999 C 353.932 91.706,356.076 91.615,357.711 90.740 C 358.664 90.231,358.598 86.527,357.627 86.027 C 356.741 85.570,351.115 85.516,350.436 85.958 M362.014 91.174 C 360.651 93.721,362.007 96.400,364.660 96.400 C 366.315 96.400,367.200 97.312,367.200 99.014 C 367.200 100.617,368.014 101.197,370.274 101.206 C 372.286 101.214,372.606 101.497,372.753 103.400 C 372.918 105.516,372.995 105.600,374.781 105.600 C 376.502 105.600,376.800 106.009,376.800 108.371 C 376.800 110.217,377.616 111.017,379.877 111.388 C 382.238 111.775,382.496 112.258,382.393 116.090 C 382.262 120.957,382.307 121.028,385.458 120.864 L 388.077 120.728 387.887 118.264 C 387.658 115.292,387.286 114.233,386.653 114.751 C 386.168 115.148,385.144 115.320,383.715 115.246 C 382.866 115.202,382.829 115.039,382.815 111.300 C 382.806 109.155,382.739 107.040,382.664 106.600 C 382.508 105.672,379.899 104.638,378.560 104.974 C 377.814 105.162,377.723 105.041,377.843 104.012 C 377.919 103.365,377.797 102.722,377.574 102.584 C 377.350 102.446,377.270 102.009,377.395 101.614 C 377.581 101.030,377.416 100.911,376.512 100.979 C 375.900 101.024,374.950 100.916,374.400 100.738 C 373.416 100.420,373.418 100.417,374.500 100.552 C 375.105 100.627,375.600 100.534,375.600 100.345 C 375.600 100.155,375.060 100.000,374.400 100.000 C 373.192 100.000,373.130 99.903,373.070 97.927 C 373.052 97.336,372.899 96.939,372.730 97.043 C 372.562 97.147,372.309 96.775,372.168 96.216 C 371.943 95.319,371.696 95.195,370.057 95.159 C 369.035 95.137,367.136 95.092,365.835 95.059 L 363.470 95.000 363.488 93.138 C 363.497 92.115,363.627 91.080,363.776 90.838 C 363.939 90.576,363.723 90.400,363.238 90.400 C 362.792 90.400,362.242 90.748,362.014 91.174 M364.400 90.765 C 364.400 91.171,365.423 91.111,365.855 90.678 C 366.008 90.525,365.743 90.400,365.267 90.400 C 364.790 90.400,364.400 90.564,364.400 90.765 M365.646 91.357 C 365.030 91.699,364.853 91.985,365.146 92.167 C 365.396 92.321,365.600 92.262,365.600 92.036 C 365.600 91.810,365.870 91.729,366.200 91.855 C 366.530 91.982,366.800 92.383,366.800 92.747 C 366.800 93.110,367.175 93.642,367.634 93.928 C 368.371 94.389,368.450 94.365,368.310 93.725 C 368.224 93.326,367.908 93.055,367.609 93.123 C 367.203 93.214,367.175 93.112,367.499 92.721 C 367.815 92.341,367.794 92.007,367.423 91.499 C 366.822 90.677,366.867 90.680,365.646 91.357 M88.000 96.927 C 88.000 97.271,87.789 97.683,87.532 97.842 C 87.205 98.044,87.152 97.900,87.356 97.366 C 87.581 96.775,87.538 96.708,87.172 97.072 C 86.492 97.746,86.372 99.467,87.004 99.467 C 87.301 99.467,87.425 99.210,87.294 98.868 C 87.142 98.473,87.227 98.369,87.542 98.564 C 87.828 98.741,87.976 98.654,87.910 98.348 C 87.849 98.067,88.010 97.828,88.267 97.818 C 89.084 97.786,89.239 97.330,88.610 96.808 C 88.108 96.391,88.000 96.412,88.000 96.927 M84.242 101.268 C 84.438 101.585,84.311 101.651,83.845 101.473 C 83.467 101.328,83.259 101.372,83.382 101.570 C 83.505 101.769,83.379 102.023,83.102 102.134 C 82.713 102.291,82.718 102.344,83.124 102.368 C 83.414 102.386,83.520 102.605,83.362 102.862 C 83.184 103.150,83.252 103.215,83.545 103.034 C 83.802 102.875,83.917 102.590,83.801 102.401 C 83.684 102.212,83.951 101.943,84.394 101.802 C 85.345 101.500,85.473 100.800,84.576 100.800 C 84.202 100.800,84.068 100.987,84.242 101.268 M81.949 102.233 C 81.726 103.836,81.778 104.267,82.195 104.267 C 82.466 104.267,82.629 103.844,82.569 103.298 C 82.460 102.302,82.040 101.581,81.949 102.233 M79.600 111.017 C 80.512 111.002,80.611 111.167,80.722 112.900 L 80.844 114.800 78.448 114.800 C 75.898 114.800,75.246 113.501,77.094 112.100 C 77.469 111.816,77.548 111.600,77.276 111.600 C 77.014 111.600,76.800 111.401,76.800 111.157 C 76.800 110.914,77.070 110.818,77.400 110.945 C 77.730 111.071,78.003 110.956,78.006 110.687 C 78.010 110.368,78.113 110.343,78.306 110.617 C 78.468 110.847,79.050 111.027,79.600 111.017 M308.772 113.103 C 308.206 113.486,307.218 114.295,306.576 114.900 C 305.934 115.505,305.206 116.000,304.958 116.000 C 301.989 116.000,300.040 123.077,301.530 128.450 C 302.367 131.467,303.080 132.336,305.600 133.405 C 306.590 133.825,307.971 134.591,308.668 135.108 C 310.187 136.232,314.358 136.042,315.608 134.792 C 315.989 134.411,316.458 134.032,316.650 133.950 C 321.135 132.023,322.572 129.697,322.553 124.400 C 322.537 119.874,321.969 118.491,319.489 116.940 C 318.560 116.360,317.170 115.391,316.399 114.787 C 313.889 112.821,310.342 112.037,308.772 113.103 M337.840 113.111 C 337.203 113.490,336.238 114.199,335.696 114.687 C 335.154 115.175,334.353 115.688,333.916 115.827 C 332.304 116.338,330.417 119.309,329.803 122.300 C 329.656 123.015,329.371 123.600,329.168 123.600 C 328.607 123.600,328.753 124.904,329.413 125.776 C 329.736 126.204,330.000 126.904,330.000 127.333 C 330.000 129.564,332.798 133.081,335.141 133.794 C 335.659 133.951,336.738 134.525,337.538 135.068 C 338.552 135.756,339.299 135.983,339.997 135.815 C 340.549 135.683,341.765 135.467,342.700 135.335 C 343.635 135.204,344.400 134.963,344.400 134.801 C 344.400 134.639,345.157 134.005,346.083 133.393 C 350.190 130.674,352.122 127.357,351.667 123.800 C 351.150 119.746,350.783 118.923,348.883 117.561 C 347.847 116.819,346.370 115.644,345.600 114.950 C 343.278 112.859,339.693 112.009,337.840 113.111 M280.000 113.200 C 280.000 113.420,279.730 113.600,279.400 113.600 C 279.070 113.600,278.800 113.805,278.800 114.056 C 278.800 114.643,277.856 115.380,275.558 116.587 C 273.046 117.907,272.600 119.114,272.600 124.600 C 272.600 130.129,273.060 131.304,275.700 132.520 C 276.745 133.002,277.600 133.531,277.600 133.698 C 277.600 133.864,277.789 134.000,278.019 134.000 C 278.250 134.000,278.855 134.450,279.365 135.000 C 280.966 136.727,285.071 136.472,287.528 134.492 C 288.558 133.662,290.054 132.655,290.853 132.254 C 295.102 130.121,294.899 119.140,290.564 116.600 C 289.625 116.050,288.188 114.969,287.372 114.200 C 285.870 112.783,280.000 111.987,280.000 113.200 M312.750 116.413 C 314.363 116.860,315.922 117.445,316.215 117.713 C 316.508 117.981,317.455 118.712,318.321 119.337 C 321.383 121.550,321.878 126.947,319.217 129.099 C 315.446 132.147,310.895 133.536,309.064 132.197 C 308.679 131.916,307.571 131.566,306.601 131.421 C 301.758 130.695,301.585 119.090,306.396 117.649 C 307.333 117.368,308.472 116.792,308.925 116.369 C 309.379 115.946,309.766 115.600,309.783 115.600 C 309.801 115.600,311.136 115.966,312.750 116.413 M342.200 116.428 C 344.475 117.004,348.000 119.666,348.000 120.809 C 348.000 121.212,348.270 121.813,348.600 122.143 C 349.276 122.819,349.420 125.817,348.794 126.204 C 348.571 126.342,348.126 127.080,347.807 127.845 C 346.417 131.171,341.019 133.629,338.255 132.195 C 337.763 131.939,336.708 131.625,335.910 131.495 C 334.307 131.235,332.803 129.983,332.794 128.900 C 332.791 128.515,332.552 127.412,332.264 126.448 C 331.122 122.631,332.864 118.441,336.031 117.390 C 337.114 117.030,338.000 116.583,338.000 116.397 C 338.000 116.039,339.125 115.688,339.800 115.835 C 340.020 115.883,341.100 116.150,342.200 116.428 M285.774 116.359 C 286.071 116.838,289.094 118.400,289.726 118.400 C 291.393 118.400,292.563 126.653,291.246 129.114 C 290.838 129.877,287.841 131.600,286.923 131.600 C 286.689 131.600,286.274 131.870,286.000 132.200 C 285.442 132.872,280.614 133.071,280.223 132.438 C 280.100 132.238,278.871 131.547,277.492 130.902 L 274.985 129.729 274.528 126.964 C 273.822 122.695,274.928 118.424,276.749 118.387 C 277.107 118.379,278.120 117.854,279.000 117.219 C 280.635 116.040,285.218 115.458,285.774 116.359 M75.865 122.447 L 76.108 125.493 74.864 125.676 C 74.179 125.776,73.434 125.674,73.209 125.449 C 72.930 125.170,72.796 125.225,72.788 125.620 C 72.779 126.052,72.672 126.022,72.368 125.500 C 71.140 123.391,70.616 126.423,70.691 135.200 C 70.723 138.876,70.729 138.884,73.247 138.692 C 74.493 138.597,75.794 138.677,76.137 138.869 C 76.481 139.061,77.503 139.322,78.409 139.449 C 79.315 139.575,81.120 140.111,82.420 140.640 C 83.720 141.168,85.283 141.602,85.892 141.604 C 88.506 141.615,95.559 143.154,97.750 144.192 C 100.693 145.587,105.236 146.784,107.616 146.793 C 108.615 146.797,110.469 147.070,111.735 147.400 C 113.002 147.730,114.288 148.000,114.592 148.000 C 114.896 148.000,116.358 148.562,117.841 149.248 C 120.704 150.573,126.658 152.000,129.326 152.000 C 131.110 152.000,134.558 152.908,137.000 154.021 C 137.880 154.422,139.140 154.986,139.800 155.275 C 141.186 155.882,178.780 156.223,297.532 156.707 C 368.338 156.996,369.272 157.010,369.842 157.790 C 370.342 158.474,370.405 168.550,370.310 232.390 C 370.186 315.424,370.517 306.775,367.294 311.160 C 366.582 312.128,366.000 313.257,366.000 313.668 C 366.000 314.711,364.203 317.448,363.001 318.236 C 362.451 318.597,362.000 319.141,362.000 319.446 C 362.000 319.751,361.844 320.000,361.654 320.000 C 361.464 320.000,360.789 320.765,360.154 321.700 C 358.413 324.265,358.016 324.611,355.200 326.027 C 353.770 326.745,352.060 327.895,351.400 328.581 C 350.213 329.815,347.762 330.869,343.000 332.195 C 341.680 332.562,340.240 333.089,339.800 333.366 C 337.646 334.722,335.061 334.756,229.400 334.859 L 124.600 334.960 122.513 333.880 C 121.366 333.286,120.171 332.800,119.859 332.800 C 119.547 332.800,118.776 332.531,118.146 332.202 C 117.516 331.874,116.492 331.604,115.871 331.602 C 114.666 331.600,111.520 329.938,110.200 328.607 C 109.190 327.588,107.068 326.400,106.259 326.400 C 105.536 326.400,103.600 324.707,103.600 324.075 C 103.600 323.414,101.943 321.793,100.622 321.162 C 99.786 320.763,99.199 319.988,98.599 318.490 C 98.134 317.330,97.109 315.610,96.322 314.669 C 94.566 312.568,93.269 309.792,92.767 307.063 C 92.558 305.928,92.165 303.797,91.894 302.328 C 91.622 300.858,91.040 299.227,90.600 298.704 C 89.199 297.038,88.000 295.246,88.000 294.816 C 88.000 294.587,87.848 294.400,87.661 294.400 C 87.475 294.400,86.907 294.040,86.400 293.600 C 85.839 293.113,84.903 292.800,84.012 292.800 C 82.279 292.800,77.016 291.477,76.263 290.852 C 75.047 289.843,70.797 290.383,70.828 291.543 C 70.853 292.493,70.891 292.519,71.200 291.800 C 71.389 291.360,71.556 291.225,71.572 291.500 C 71.590 291.824,72.251 292.000,73.447 292.000 C 74.929 292.000,75.565 292.237,76.661 293.200 C 77.488 293.926,78.473 294.400,79.154 294.400 C 81.553 294.400,86.400 297.209,86.400 298.599 C 86.400 298.876,86.660 299.318,86.979 299.582 C 87.319 299.865,87.669 301.189,87.827 302.795 C 88.047 305.025,88.306 305.757,89.236 306.775 C 90.385 308.033,91.600 310.942,91.600 312.436 C 91.600 314.048,93.202 316.842,94.357 317.245 C 95.419 317.615,96.800 319.726,96.800 320.978 C 96.800 321.652,99.047 323.600,99.824 323.600 C 100.133 323.600,100.822 324.455,101.355 325.500 C 102.043 326.848,102.771 327.616,103.862 328.144 C 104.708 328.553,105.670 329.020,106.000 329.181 C 106.330 329.342,106.821 329.923,107.091 330.472 C 107.647 331.604,109.378 332.427,113.327 333.436 C 115.300 333.941,116.411 334.491,117.351 335.431 C 119.615 337.695,120.607 337.810,137.000 337.709 C 145.140 337.660,193.560 337.462,244.600 337.270 C 305.729 337.040,338.083 336.780,339.400 336.507 C 341.630 336.045,344.080 335.161,344.427 334.694 C 344.752 334.257,347.680 332.800,348.234 332.800 C 349.216 332.800,352.390 331.139,353.078 330.265 C 353.475 329.761,355.029 328.743,356.531 328.004 C 358.413 327.077,359.712 326.092,360.713 324.830 C 361.511 323.824,362.982 322.169,363.982 321.154 C 364.982 320.139,366.424 318.069,367.186 316.554 C 367.948 315.039,368.820 313.647,369.123 313.459 C 369.908 312.974,370.827 310.703,371.738 307.000 C 372.502 303.890,372.529 301.759,372.683 231.600 C 372.854 153.817,372.943 157.160,370.662 155.420 L 369.350 154.419 297.775 154.299 C 231.822 154.188,226.074 154.126,224.600 153.507 C 223.140 152.894,219.578 152.834,183.775 152.818 C 144.656 152.800,144.546 152.798,142.797 151.953 C 141.109 151.138,139.389 150.825,132.000 149.993 C 126.811 149.409,125.890 149.164,124.721 148.061 C 123.176 146.603,120.961 146.015,114.600 145.374 C 107.219 144.630,105.977 144.407,105.736 143.777 C 105.103 142.127,99.253 140.412,94.235 140.405 C 90.652 140.399,87.098 139.464,85.646 138.144 C 84.280 136.903,83.387 136.538,79.935 135.809 C 76.368 135.055,76.198 134.816,77.008 131.704 C 78.061 127.661,77.679 122.112,76.214 120.182 C 75.680 119.477,75.645 119.699,75.865 122.447 M71.900 120.867 C 71.367 121.425,71.333 121.600,71.757 121.600 C 72.064 121.600,72.428 121.304,72.567 120.943 C 72.917 120.031,72.720 120.008,71.900 120.867 M388.130 124.711 C 386.804 125.555,386.772 127.977,386.887 220.800 C 387.006 317.919,386.951 315.062,388.694 314.724 C 389.523 314.563,389.804 313.733,389.029 313.733 C 388.702 313.733,388.528 313.883,388.641 314.067 C 388.755 314.250,388.657 314.400,388.424 314.400 C 387.939 314.400,387.696 309.001,388.159 308.512 C 388.205 308.464,388.862 308.383,389.621 308.332 C 390.379 308.280,391.132 308.050,391.294 307.819 C 391.457 307.587,391.590 307.802,391.594 308.300 C 391.597 308.819,391.847 309.200,392.183 309.200 C 392.785 309.200,393.158 128.999,392.560 127.439 C 392.426 127.090,392.148 126.909,391.942 127.036 C 391.726 127.170,391.672 126.854,391.814 126.288 C 392.010 125.505,391.882 125.262,391.172 125.077 C 390.506 124.903,390.399 124.959,390.742 125.302 C 390.994 125.554,391.200 126.090,391.200 126.493 C 391.200 126.895,391.470 127.329,391.800 127.455 C 392.130 127.582,392.400 127.857,392.400 128.066 C 392.400 128.276,392.232 128.344,392.028 128.217 C 391.823 128.091,391.525 128.198,391.366 128.455 C 391.195 128.731,391.249 128.817,391.496 128.664 C 391.824 128.462,392.400 129.163,392.400 129.764 C 392.400 129.819,391.401 129.904,390.180 129.953 L 387.961 130.043 388.080 127.558 C 388.197 125.134,389.600 123.380,389.600 125.659 C 389.600 126.093,389.780 126.336,390.001 126.199 C 390.268 126.034,390.263 125.692,389.987 125.176 C 389.553 124.364,388.923 124.207,388.130 124.711 M46.175 163.000 C 46.175 168.940,46.231 171.426,46.299 168.524 C 46.367 165.622,46.367 160.762,46.299 157.724 C 46.231 154.686,46.175 157.060,46.175 163.000 M318.000 161.476 C 317.670 161.593,316.077 162.314,314.460 163.079 C 312.293 164.103,310.454 164.615,307.460 165.026 C 298.248 166.291,298.213 166.299,294.020 168.273 C 292.821 168.837,290.661 169.472,289.220 169.682 C 280.066 171.020,275.635 172.088,274.800 173.156 C 274.452 173.602,269.334 174.800,267.734 174.810 C 265.275 174.826,257.944 176.593,256.200 177.590 C 254.507 178.558,248.459 179.996,246.039 180.006 C 243.776 180.015,239.673 181.106,236.400 182.568 C 233.611 183.814,226.933 185.233,223.971 185.208 C 222.607 185.197,219.586 186.191,216.463 187.678 C 215.067 188.343,212.817 189.039,211.463 189.225 C 204.094 190.236,201.673 190.841,197.508 192.714 C 194.098 194.247,192.730 194.462,190.561 193.803 C 189.482 193.476,188.579 193.207,188.554 193.204 C 188.529 193.202,188.034 193.885,187.454 194.722 C 185.960 196.878,186.061 197.193,188.100 196.726 C 189.035 196.511,191.870 196.085,194.400 195.778 C 199.516 195.158,202.146 194.523,203.632 193.548 C 205.374 192.405,213.757 190.400,216.795 190.400 C 217.917 190.400,218.903 190.054,222.655 188.343 C 225.186 187.190,228.029 186.411,229.800 186.387 C 232.575 186.348,238.912 184.973,241.200 183.914 C 244.575 182.351,245.914 181.981,249.631 181.586 C 254.826 181.033,261.263 179.344,262.005 178.339 C 262.350 177.870,267.616 176.760,271.200 176.400 C 274.909 176.028,277.850 175.224,281.096 173.697 C 283.299 172.660,287.200 171.824,292.676 171.217 C 294.477 171.018,296.310 170.662,296.749 170.427 C 297.188 170.192,297.846 170.000,298.212 170.000 C 298.577 170.000,299.354 169.662,299.938 169.249 C 301.410 168.207,304.596 167.370,310.000 166.604 C 316.003 165.754,315.914 165.771,317.951 165.017 C 319.846 164.316,320.530 164.724,321.260 166.992 C 321.598 168.042,321.680 289.916,321.345 293.122 C 321.039 296.046,320.307 296.551,315.800 296.947 C 310.968 297.372,305.681 298.726,304.341 299.882 C 303.590 300.529,297.008 301.999,294.839 302.003 C 292.700 302.007,287.100 303.444,285.340 304.441 C 283.710 305.363,276.355 307.196,274.248 307.205 C 272.739 307.211,268.862 308.414,266.400 309.640 C 264.676 310.499,257.511 311.983,255.000 312.002 C 253.742 312.011,248.631 313.531,247.600 314.203 C 246.234 315.093,243.874 315.677,238.000 316.579 C 231.927 317.512,228.859 318.321,227.679 319.301 C 226.825 320.010,223.851 320.774,220.373 321.179 C 214.415 321.872,209.002 323.182,208.374 324.083 C 208.068 324.523,204.349 325.536,201.300 326.011 C 199.925 326.225,197.585 326.598,196.100 326.841 C 188.143 328.139,187.790 327.746,187.432 317.200 C 187.245 311.692,186.621 307.805,185.660 306.150 C 185.241 305.429,185.224 305.428,185.212 306.137 C 185.205 306.542,184.854 307.313,184.432 307.850 C 183.675 308.813,183.675 308.864,184.432 311.512 C 185.032 313.608,185.200 315.478,185.200 320.035 C 185.200 324.060,185.385 326.483,185.796 327.836 C 186.123 328.916,186.393 330.177,186.396 330.638 C 186.412 333.822,193.474 333.602,194.810 330.375 C 195.080 329.723,195.683 329.110,196.151 329.013 C 196.618 328.916,198.296 328.559,199.879 328.218 C 201.462 327.878,203.503 327.600,204.413 327.600 C 206.221 327.600,210.925 326.559,212.200 325.877 C 214.893 324.436,216.912 323.600,217.698 323.600 C 218.194 323.600,219.860 323.333,221.400 323.007 C 222.940 322.681,224.933 322.411,225.829 322.407 C 227.752 322.399,230.470 321.572,233.833 319.973 C 235.171 319.337,237.511 318.637,239.033 318.419 C 248.169 317.106,249.659 316.788,252.159 315.619 C 255.037 314.273,256.071 314.022,263.800 312.791 C 268.752 312.002,271.478 311.212,272.800 310.183 C 273.552 309.598,277.735 308.633,283.200 307.784 C 286.125 307.330,288.129 306.762,289.800 305.915 C 292.313 304.641,297.952 303.196,300.380 303.205 C 303.204 303.215,309.972 301.365,310.800 300.356 C 311.144 299.938,313.677 299.264,316.800 298.761 C 320.698 298.133,322.173 297.519,323.069 296.151 C 323.769 295.082,323.800 292.320,323.800 230.018 L 323.800 165.000 322.910 163.569 C 321.691 161.608,319.844 160.821,318.000 161.476 M18.000 175.138 C 18.000 175.324,18.388 175.819,18.862 176.238 L 19.724 177.000 19.016 175.900 C 18.286 174.766,18.000 174.551,18.000 175.138 M46.877 279.230 C 46.956 279.466,47.191 279.660,47.400 279.660 C 47.609 279.660,47.845 279.466,47.923 279.230 C 48.002 278.993,47.767 278.800,47.400 278.800 C 47.033 278.800,46.798 278.993,46.877 279.230 M70.901 307.099 L 70.938 314.397 72.293 313.598 C 73.038 313.158,73.513 313.024,73.347 313.299 C 73.127 313.666,73.221 313.658,73.698 313.272 C 75.490 311.820,76.044 313.211,75.821 318.610 C 75.627 323.322,75.812 325.349,76.356 324.474 C 76.594 324.090,78.088 323.872,79.900 323.958 C 81.442 324.030,81.255 328.678,79.700 328.913 L 78.600 329.080 79.700 329.140 C 80.710 329.195,80.800 329.333,80.800 330.826 C 80.800 333.427,81.308 334.000,83.614 334.000 C 85.226 334.000,85.606 334.132,85.634 334.700 C 85.817 338.426,86.208 339.018,88.520 339.072 C 90.391 339.115,90.336 339.057,90.457 341.117 C 90.575 343.114,91.598 344.000,93.786 344.000 C 94.564 344.000,95.200 344.180,95.200 344.400 C 95.200 344.620,95.391 344.800,95.624 344.800 C 95.857 344.800,95.936 344.620,95.800 344.400 C 95.664 344.180,95.923 343.978,96.376 343.950 C 100.968 343.671,100.870 343.623,100.632 346.053 C 100.527 347.130,100.338 348.176,100.213 348.378 C 100.085 348.587,101.070 348.739,102.493 348.730 C 103.872 348.721,106.327 348.734,107.948 348.757 L 110.896 348.800 110.722 351.209 L 110.548 353.618 114.974 353.561 C 118.470 353.516,122.712 352.955,120.513 352.828 C 120.244 352.813,120.101 352.575,120.193 352.300 C 121.517 348.364,120.121 347.488,111.682 346.959 C 107.181 346.677,106.822 346.549,106.174 345.000 C 105.546 343.497,104.903 343.046,102.822 342.651 C 98.980 341.920,98.414 341.621,97.593 339.883 C 96.799 338.203,94.699 336.400,93.536 336.400 C 93.198 336.400,92.591 335.667,92.187 334.770 C 91.685 333.658,90.968 332.894,89.928 332.363 C 89.014 331.897,88.173 331.069,87.824 330.293 C 86.950 328.350,86.315 327.720,84.495 326.991 C 82.860 326.337,82.830 326.289,82.191 323.264 C 81.317 319.127,81.012 318.586,79.484 318.470 C 77.555 318.323,77.400 317.923,77.400 313.077 C 77.400 310.615,77.183 307.610,76.918 306.400 C 76.654 305.190,76.294 303.403,76.118 302.428 C 75.775 300.515,73.851 299.281,73.329 300.640 C 73.143 301.125,73.015 301.104,72.565 300.512 C 72.055 299.840,72.025 299.839,72.013 300.500 C 72.006 300.885,71.833 301.200,71.629 301.200 C 71.425 301.200,71.170 300.885,71.061 300.500 C 70.952 300.115,70.880 303.084,70.901 307.099 M71.813 317.579 C 71.623 317.887,72.762 319.107,73.057 318.911 C 73.131 318.862,73.471 318.929,73.813 319.060 C 74.955 319.499,74.719 319.010,73.361 318.124 C 72.622 317.642,71.925 317.397,71.813 317.579 M382.410 318.775 C 381.950 319.886,382.035 321.615,382.654 323.717 C 382.932 324.662,386.081 324.557,387.144 323.566 C 387.962 322.804,388.408 317.701,387.613 318.192 C 387.386 318.332,387.200 318.287,387.200 318.092 C 387.200 316.964,382.907 317.576,382.410 318.775 M76.046 326.600 C 75.991 327.908,76.660 328.702,77.283 328.068 C 77.706 327.638,77.697 327.566,77.235 327.671 C 76.915 327.744,76.543 327.367,76.375 326.800 C 76.136 325.989,76.073 325.951,76.046 326.600 M377.632 328.500 C 377.438 328.995,377.075 330.165,376.824 331.100 C 376.389 332.722,376.298 332.800,374.846 332.800 C 373.132 332.800,372.000 333.738,372.000 335.158 C 372.000 336.760,371.256 337.582,369.561 337.853 C 367.539 338.176,366.800 338.899,366.800 340.552 C 366.800 342.789,366.198 343.169,362.200 343.451 C 357.957 343.751,358.300 343.563,358.327 345.580 C 358.358 347.774,357.790 348.000,352.245 348.000 C 346.273 348.000,345.600 348.291,345.600 350.874 C 345.600 353.220,346.241 353.600,350.202 353.600 C 352.924 353.600,353.826 353.047,352.585 352.139 C 352.179 351.843,352.031 351.600,352.257 351.600 C 352.482 351.600,352.667 351.330,352.667 351.000 C 352.667 350.670,352.517 350.400,352.333 350.400 C 352.150 350.400,352.000 350.026,352.000 349.570 C 352.000 348.787,352.186 348.747,355.197 348.870 C 357.249 348.953,358.453 348.844,358.560 348.564 C 358.741 348.089,359.938 348.067,360.679 348.525 C 360.935 348.684,361.270 348.611,361.422 348.364 C 361.627 348.033,361.774 348.035,361.982 348.371 C 362.705 349.540,363.398 348.363,363.263 346.196 L 363.126 344.000 365.463 343.953 C 366.748 343.927,367.935 343.927,368.100 343.953 C 368.382 343.997,368.554 343.375,368.447 342.700 C 368.421 342.535,368.592 342.400,368.827 342.400 C 369.072 342.400,369.146 342.741,369.000 343.200 C 368.796 343.844,368.927 343.999,369.673 343.995 C 372.088 343.980,373.200 342.765,373.200 340.140 C 373.200 339.233,373.854 338.957,375.498 339.170 C 376.456 339.294,377.528 337.785,377.805 335.921 C 377.990 334.678,378.307 333.983,378.742 333.868 C 379.317 333.715,379.312 333.687,378.700 333.646 C 378.124 333.608,378.000 333.211,378.000 331.400 L 378.000 329.200 380.400 329.200 C 382.835 329.200,383.430 328.766,382.026 328.014 C 380.542 327.220,378.023 327.498,377.632 328.500 M382.294 330.639 C 382.163 330.771,382.163 331.160,382.296 331.505 C 382.471 331.963,382.383 332.043,381.968 331.801 C 381.656 331.620,381.533 331.619,381.697 331.799 C 381.860 331.979,381.770 332.397,381.497 332.727 C 381.058 333.258,381.106 333.263,381.900 332.768 C 382.402 332.455,382.800 331.808,382.800 331.304 C 382.800 330.366,382.700 330.234,382.294 330.639 M372.190 339.921 C 372.301 340.207,372.233 340.344,372.041 340.225 C 371.848 340.106,371.597 340.367,371.483 340.804 C 371.369 341.242,371.056 341.600,370.788 341.600 C 370.430 341.600,370.447 341.415,370.851 340.900 C 371.345 340.270,371.332 340.253,370.718 340.734 C 370.342 341.028,369.843 341.150,369.608 341.005 C 369.373 340.859,369.230 340.956,369.290 341.220 C 369.351 341.484,369.180 341.781,368.911 341.880 C 368.579 342.002,368.439 341.608,368.475 340.653 C 368.531 339.161,371.660 338.545,372.190 339.921 M95.353 345.676 C 95.191 345.938,95.271 346.224,95.532 346.311 C 95.792 346.397,95.898 346.641,95.768 346.852 C 95.638 347.063,95.749 347.497,96.015 347.818 C 96.560 348.475,97.600 348.603,97.600 348.013 C 97.600 347.799,97.330 347.729,97.000 347.855 C 96.587 348.014,96.400 347.830,96.400 347.266 C 96.400 346.816,96.217 346.334,95.993 346.196 C 95.770 346.058,95.691 345.777,95.817 345.572 C 95.944 345.368,95.957 345.200,95.847 345.200 C 95.737 345.200,95.515 345.414,95.353 345.676 M357.372 351.555 C 357.666 352.030,356.615 352.873,356.199 352.497 C 356.019 352.333,356.008 352.437,356.176 352.726 C 356.418 353.145,356.634 353.112,357.240 352.564 C 358.080 351.804,358.229 351.200,357.576 351.200 C 357.343 351.200,357.251 351.360,357.372 351.555 " stroke="none" fill="#6a7cb5" fill-rule="evenodd"></path></g></svg>