<?xml version="1.0" standalone="no"?>
<!DOCTYPE svg PUBLIC "-//W3C//DTD SVG 20010904//EN"
 "http://www.w3.org/TR/2001/REC-SVG-20010904/DTD/svg10.dtd">
<svg version="1.0" xmlns="http://www.w3.org/2000/svg"
 width="316.000000pt" height="72.000000pt" viewBox="0 0 316.000000 72.000000"
 preserveAspectRatio="xMidYMid meet">

<g transform="translate(0.000000,72.000000) scale(0.100000,-0.100000)"
fill="#000000" stroke="none">
<path d="M245 615 c-35 -18 -55 -42 -55 -65 0 -33 124 -50 353 -50 l207 0 0
-144 c0 -79 -3 -152 -6 -161 -15 -38 -55 -45 -263 -45 -217 0 -243 5 -263 51
-13 30 -38 47 -38 26 0 -24 41 -78 66 -87 14 -6 122 -10 240 -10 234 0 259 5
282 55 8 17 12 86 12 200 l0 175 -29 32 -29 33 -224 3 c-187 2 -228 0 -253
-13z m353 -58 c2 -12 -3 -17 -17 -17 -12 0 -21 6 -21 13 0 31 32 34 38 4z m56
-8 c-8 -14 -34 -11 -34 4 0 8 3 17 7 20 9 9 34 -13 27 -24z m54 8 c2 -12 -3
-17 -17 -17 -12 0 -21 6 -21 13 0 31 32 34 38 4z"/>
<path d="M1397 523 c-4 -3 -7 -73 -7 -155 l0 -148 25 0 c14 0 25 5 25 10 0 7
6 7 19 0 36 -19 83 -12 113 17 24 23 28 35 28 79 0 72 -26 104 -84 104 -23 0
-47 -5 -54 -12 -9 -9 -12 2 -12 50 0 58 -1 62 -23 62 -13 0 -27 -3 -30 -7z
m141 -158 c16 -35 15 -56 -4 -83 -17 -24 -53 -29 -72 -10 -7 7 -12 30 -12 53
0 48 13 65 50 65 19 0 30 -8 38 -25z"/>
<path d="M1780 505 c-11 -13 -11 -19 3 -32 21 -21 49 -9 45 19 -4 28 -30 35
-48 13z"/>
<path d="M850 504 c0 -3 11 -51 26 -107 47 -190 42 -177 73 -177 26 0 28 4 50
93 13 50 25 99 28 107 3 8 14 -25 24 -75 27 -126 26 -125 58 -125 26 0 28 3
64 138 20 75 37 141 37 145 0 4 -11 7 -25 7 -26 0 -34 -18 -56 -135 -7 -33
-15 -63 -19 -68 -3 -4 -12 23 -19 60 -23 131 -29 143 -60 143 -28 0 -29 -2
-51 -104 -13 -58 -26 -103 -30 -101 -4 2 -15 49 -25 104 -18 100 -19 101 -47
101 -15 0 -28 -3 -28 -6z"/>
<path d="M506 448 l-118 -31 3 -118 c2 -64 7 -120 10 -124 7 -6 196 38 237 55
21 9 22 15 22 130 0 108 -2 120 -17 119 -10 0 -71 -15 -137 -31z"/>
<path d="M1880 455 c-5 -14 -16 -25 -25 -25 -22 0 -19 -27 5 -40 17 -9 20 -21
20 -78 0 -79 9 -92 62 -92 31 0 38 4 38 19 0 13 -8 21 -22 23 -21 3 -23 9 -26
66 -3 61 -2 62 23 62 18 0 25 5 25 20 0 15 -7 20 -25 20 -20 0 -25 5 -25 25 0
18 -5 25 -20 25 -13 0 -24 -10 -30 -25z"/>
<path d="M1216 399 c-20 -23 -26 -41 -26 -77 1 -73 34 -102 118 -102 53 0 63
5 55 26 -3 9 -21 14 -52 14 -47 0 -71 13 -71 37 0 9 19 13 70 13 68 0 70 1 70
25 0 33 -25 81 -45 89 -9 3 -34 6 -55 6 -30 0 -44 -6 -64 -31z m104 -18 c15
-30 14 -31 -35 -31 -48 0 -55 9 -29 34 21 22 51 20 64 -3z"/>
<path d="M1636 415 c-35 -35 -13 -93 41 -109 27 -9 36 -31 18 -46 -11 -9 -23
-9 -44 -2 -24 8 -31 7 -35 -5 -10 -25 3 -33 55 -33 105 0 124 92 26 129 -41
16 -33 46 13 46 24 0 35 5 35 15 0 22 -87 26 -109 5z"/>
<path d="M1780 325 l0 -105 25 0 25 0 0 105 0 105 -25 0 -25 0 0 -105z"/>
<path d="M2006 399 c-50 -59 -29 -158 38 -175 42 -10 111 0 111 16 0 11 -14
16 -50 18 -52 3 -75 15 -75 38 0 11 17 14 70 14 l70 0 0 34 c0 19 -9 45 -21
60 -17 22 -28 26 -69 26 -42 0 -52 -4 -74 -31z m104 -18 c15 -30 14 -31 -35
-31 -48 0 -55 9 -29 34 21 22 51 20 64 -3z"/>
</g>
</svg>
